%TF.GenerationSoftware,KiCad,Pcbnew,9.0.6-9.0.6~ubuntu24.04.1*%
%TF.CreationDate,2025-12-16T20:38:13-08:00*%
%TF.ProjectId,Shy_Beeper,5368795f-4265-4657-9065-722e6b696361,rev?*%
%TF.SameCoordinates,Original*%
%TF.FileFunction,Copper,L2,Bot*%
%TF.FilePolarity,Positive*%
%FSLAX46Y46*%
G04 Gerber Fmt 4.6, Leading zero omitted, Abs format (unit mm)*
G04 Created by KiCad (PCBNEW 9.0.6-9.0.6~ubuntu24.04.1) date 2025-12-16 20:38:13*
%MOMM*%
%LPD*%
G01*
G04 APERTURE LIST*
G04 Aperture macros list*
%AMRoundRect*
0 Rectangle with rounded corners*
0 $1 Rounding radius*
0 $2 $3 $4 $5 $6 $7 $8 $9 X,Y pos of 4 corners*
0 Add a 4 corners polygon primitive as box body*
4,1,4,$2,$3,$4,$5,$6,$7,$8,$9,$2,$3,0*
0 Add four circle primitives for the rounded corners*
1,1,$1+$1,$2,$3*
1,1,$1+$1,$4,$5*
1,1,$1+$1,$6,$7*
1,1,$1+$1,$8,$9*
0 Add four rect primitives between the rounded corners*
20,1,$1+$1,$2,$3,$4,$5,0*
20,1,$1+$1,$4,$5,$6,$7,0*
20,1,$1+$1,$6,$7,$8,$9,0*
20,1,$1+$1,$8,$9,$2,$3,0*%
%AMRotRect*
0 Rectangle, with rotation*
0 The origin of the aperture is its center*
0 $1 length*
0 $2 width*
0 $3 Rotation angle, in degrees counterclockwise*
0 Add horizontal line*
21,1,$1,$2,0,0,$3*%
G04 Aperture macros list end*
%TA.AperFunction,SMDPad,CuDef*%
%ADD10RoundRect,0.150000X0.689429X-0.477297X-0.477297X0.689429X-0.689429X0.477297X0.477297X-0.689429X0*%
%TD*%
%TA.AperFunction,ComponentPad*%
%ADD11RotRect,1.700000X1.700000X45.000000*%
%TD*%
%TA.AperFunction,ComponentPad*%
%ADD12C,1.700000*%
%TD*%
%TA.AperFunction,SMDPad,CuDef*%
%ADD13RoundRect,0.250000X0.412500X1.100000X-0.412500X1.100000X-0.412500X-1.100000X0.412500X-1.100000X0*%
%TD*%
%TA.AperFunction,ComponentPad*%
%ADD14C,2.000000*%
%TD*%
%TA.AperFunction,ComponentPad*%
%ADD15C,3.000000*%
%TD*%
%TA.AperFunction,ViaPad*%
%ADD16C,0.600000*%
%TD*%
%TA.AperFunction,Conductor*%
%ADD17C,0.500000*%
%TD*%
%TA.AperFunction,Conductor*%
%ADD18C,0.250000*%
%TD*%
G04 APERTURE END LIST*
D10*
%TO.P,U1,1,~{RESET}/PB5*%
%TO.N,/SS*%
X158097128Y-95903051D03*
%TO.P,U1,2,PB3*%
%TO.N,Net-(U1-PB3)*%
X157199102Y-96801076D03*
%TO.P,U1,3,PB4*%
%TO.N,Net-(U1-PB4)*%
X156301076Y-97699102D03*
%TO.P,U1,4,GND*%
%TO.N,GND*%
X155403051Y-98597128D03*
%TO.P,U1,5,PB0*%
%TO.N,/MOSI*%
X151902872Y-95096949D03*
%TO.P,U1,6,PB1*%
%TO.N,/MISO*%
X152800898Y-94198924D03*
%TO.P,U1,7,PB2*%
%TO.N,/SCK*%
X153698924Y-93300898D03*
%TO.P,U1,8,VCC*%
%TO.N,+3V0*%
X154596949Y-92402872D03*
%TD*%
D11*
%TO.P,J1,1,Pin_1*%
%TO.N,/MOSI*%
X146907898Y-94907898D03*
D12*
%TO.P,J1,2,Pin_2*%
%TO.N,/MISO*%
X148703949Y-96703949D03*
%TO.P,J1,3,Pin_3*%
%TO.N,/SCK*%
X150500000Y-98500000D03*
%TO.P,J1,4,Pin_4*%
%TO.N,/SS*%
X152296052Y-100296052D03*
%TO.P,J1,5,Pin_5*%
%TO.N,GND*%
X154092103Y-102092103D03*
%TO.P,J1,6,Pin_6*%
%TO.N,+3V0*%
X155888154Y-103888154D03*
%TD*%
D13*
%TO.P,C1,1*%
%TO.N,+3V0*%
X149562500Y-91000000D03*
%TO.P,C1,2*%
%TO.N,GND*%
X146437500Y-91000000D03*
%TD*%
D14*
%TO.P,BZ1,2*%
%TO.N,Net-(U1-PB4)*%
X147500000Y-104500000D03*
%TO.P,BZ1,1*%
%TO.N,Net-(U1-PB3)*%
X152500000Y-104500000D03*
%TD*%
D15*
%TO.P,BT1,1,+*%
%TO.N,+3V0*%
X160500000Y-100000000D03*
%TO.P,BT1,2,-*%
%TO.N,GND*%
X141100000Y-100000000D03*
%TD*%
D16*
%TO.N,GND*%
X145000000Y-110000000D03*
X147500000Y-110000000D03*
X150000000Y-110000000D03*
X152500000Y-110000000D03*
X155000000Y-110000000D03*
X160000000Y-102500000D03*
X160000000Y-105000000D03*
X157500000Y-105000000D03*
X157500000Y-107500000D03*
X155000000Y-107500000D03*
X152500000Y-107500000D03*
X150000000Y-107500000D03*
X147500000Y-107500000D03*
X145000000Y-107500000D03*
X142500000Y-107500000D03*
X140000000Y-105000000D03*
X142500000Y-105000000D03*
X145000000Y-105000000D03*
X147500000Y-102500000D03*
X150000000Y-102500000D03*
X150000000Y-100000000D03*
X147500000Y-100000000D03*
X145000000Y-100000000D03*
X145000000Y-102500000D03*
X142500000Y-102500000D03*
X140000000Y-102500000D03*
X140000000Y-97500000D03*
X155000000Y-90000000D03*
X152500000Y-90000000D03*
X145000000Y-90000000D03*
X145000000Y-92500000D03*
X145000000Y-97500000D03*
X153882737Y-99149932D03*
X154627303Y-99559785D03*
%TD*%
D17*
%TO.N,+3V0*%
X160500000Y-100000000D02*
X156611846Y-103888154D01*
X156611846Y-103888154D02*
X155888154Y-103888154D01*
X149562500Y-91000000D02*
X153194077Y-91000000D01*
X153194077Y-91000000D02*
X154596949Y-92402872D01*
X160500000Y-100000000D02*
X160500000Y-96000000D01*
X154999821Y-92000000D02*
X154596949Y-92402872D01*
X160500000Y-96000000D02*
X156500000Y-92000000D01*
X156500000Y-92000000D02*
X154999821Y-92000000D01*
D18*
%TO.N,/MOSI*%
X146907898Y-94907898D02*
X147092102Y-94907898D01*
X150805923Y-94000000D02*
X151902872Y-95096949D01*
X147092102Y-94907898D02*
X148000000Y-94000000D01*
X148000000Y-94000000D02*
X150805923Y-94000000D01*
%TO.N,/SS*%
X152296052Y-100296052D02*
X152296052Y-99357801D01*
X156573957Y-95079896D02*
X157273973Y-95079896D01*
X152296052Y-99357801D02*
X156573957Y-95079896D01*
X157273973Y-95079896D02*
X158097128Y-95903051D01*
%TO.N,/SCK*%
X150500000Y-98500000D02*
X152000000Y-98500000D01*
X152000000Y-98500000D02*
X154610560Y-95889440D01*
X154610560Y-95889440D02*
X154610560Y-94212534D01*
X154610560Y-94212534D02*
X153698924Y-93300898D01*
%TO.N,/MISO*%
X148703949Y-96703949D02*
X152669339Y-96703949D01*
X152669339Y-96703949D02*
X153705310Y-95667978D01*
X153705310Y-95103336D02*
X152800898Y-94198924D01*
X153705310Y-95667978D02*
X153705310Y-95103336D01*
%TO.N,Net-(U1-PB4)*%
X147500000Y-104500000D02*
X149883957Y-104500000D01*
X156000000Y-100500000D02*
X157201950Y-99298050D01*
X149883957Y-104500000D02*
X153883957Y-100500000D01*
X153883957Y-100500000D02*
X156000000Y-100500000D01*
X157201950Y-99298050D02*
X157201950Y-98599976D01*
X157201950Y-98599976D02*
X156301076Y-97699102D01*
%TO.N,Net-(U1-PB3)*%
X152500000Y-104500000D02*
X153479184Y-104500000D01*
X158108590Y-97710564D02*
X157199102Y-96801076D01*
X153479184Y-104500000D02*
X158108590Y-99870594D01*
X158108590Y-99870594D02*
X158108590Y-97710564D01*
%TD*%
%TA.AperFunction,Conductor*%
%TO.N,GND*%
G36*
X150348960Y-87686541D02*
G01*
X151031916Y-87724894D01*
X151038832Y-87725478D01*
X151718572Y-87802067D01*
X151725404Y-87803031D01*
X152399824Y-87917620D01*
X152406578Y-87918963D01*
X153073496Y-88071182D01*
X153080189Y-88072908D01*
X153737516Y-88262281D01*
X153744111Y-88264384D01*
X154389778Y-88490311D01*
X154396242Y-88492779D01*
X155028215Y-88754551D01*
X155034547Y-88757384D01*
X155650839Y-89054175D01*
X155657010Y-89057363D01*
X156255680Y-89388237D01*
X156261671Y-89391771D01*
X156622017Y-89618191D01*
X156827506Y-89747309D01*
X156840845Y-89755690D01*
X156846622Y-89759550D01*
X157404506Y-90155389D01*
X157410030Y-90159546D01*
X157944838Y-90586042D01*
X157950132Y-90590513D01*
X158460186Y-91046324D01*
X158465240Y-91051103D01*
X158948896Y-91534759D01*
X158953675Y-91539813D01*
X159388757Y-92026671D01*
X159409478Y-92049857D01*
X159413960Y-92055165D01*
X159840448Y-92589963D01*
X159844614Y-92595499D01*
X160025547Y-92850500D01*
X160240445Y-93153371D01*
X160244309Y-93159154D01*
X160608228Y-93738328D01*
X160611762Y-93744319D01*
X160942636Y-94342989D01*
X160945828Y-94349168D01*
X161242611Y-94965444D01*
X161245452Y-94971793D01*
X161507213Y-95603740D01*
X161509694Y-95610239D01*
X161735610Y-96255872D01*
X161737722Y-96262498D01*
X161927086Y-96919793D01*
X161928823Y-96926528D01*
X162078826Y-97583738D01*
X162081028Y-97593383D01*
X162082385Y-97600205D01*
X162196964Y-98274568D01*
X162197936Y-98281456D01*
X162233197Y-98594409D01*
X162221143Y-98663230D01*
X162173793Y-98714610D01*
X162106183Y-98732234D01*
X162039777Y-98710507D01*
X162011605Y-98683782D01*
X162007282Y-98678149D01*
X162007278Y-98678145D01*
X162007275Y-98678141D01*
X161821860Y-98492726D01*
X161821851Y-98492718D01*
X161613803Y-98333075D01*
X161386700Y-98201958D01*
X161386695Y-98201956D01*
X161327046Y-98177248D01*
X161272643Y-98133406D01*
X161250579Y-98067111D01*
X161250500Y-98062687D01*
X161250500Y-95926079D01*
X161221659Y-95781092D01*
X161221658Y-95781091D01*
X161221658Y-95781087D01*
X161177235Y-95673839D01*
X161165087Y-95644511D01*
X161165080Y-95644498D01*
X161082952Y-95521585D01*
X161082951Y-95521584D01*
X160978416Y-95417049D01*
X159996217Y-94434850D01*
X156978421Y-91417052D01*
X156978414Y-91417046D01*
X156904729Y-91367812D01*
X156904729Y-91367813D01*
X156855491Y-91334913D01*
X156718917Y-91278343D01*
X156718907Y-91278340D01*
X156573920Y-91249500D01*
X156573918Y-91249500D01*
X154925903Y-91249500D01*
X154925901Y-91249500D01*
X154780914Y-91278340D01*
X154780906Y-91278342D01*
X154732710Y-91298305D01*
X154663240Y-91305772D01*
X154600762Y-91274496D01*
X154597579Y-91271424D01*
X154533179Y-91207024D01*
X154533172Y-91207017D01*
X154533165Y-91207011D01*
X154505043Y-91182992D01*
X154372576Y-91110169D01*
X154344632Y-91089188D01*
X153672498Y-90417052D01*
X153672491Y-90417046D01*
X153598806Y-90367812D01*
X153598806Y-90367813D01*
X153549568Y-90334913D01*
X153412994Y-90278343D01*
X153412984Y-90278340D01*
X153267997Y-90249500D01*
X153267995Y-90249500D01*
X150849499Y-90249500D01*
X150782460Y-90229815D01*
X150736705Y-90177011D01*
X150725499Y-90125500D01*
X150725499Y-89849998D01*
X150725498Y-89849981D01*
X150714999Y-89747203D01*
X150714998Y-89747200D01*
X150713232Y-89741870D01*
X150659814Y-89580666D01*
X150567712Y-89431344D01*
X150443656Y-89307288D01*
X150294334Y-89215186D01*
X150127797Y-89160001D01*
X150127795Y-89160000D01*
X150025010Y-89149500D01*
X149099998Y-89149500D01*
X149099980Y-89149501D01*
X148997203Y-89160000D01*
X148997200Y-89160001D01*
X148830668Y-89215185D01*
X148830663Y-89215187D01*
X148681342Y-89307289D01*
X148557289Y-89431342D01*
X148465187Y-89580663D01*
X148465185Y-89580668D01*
X148465115Y-89580880D01*
X148410001Y-89747203D01*
X148410001Y-89747204D01*
X148410000Y-89747204D01*
X148399500Y-89849983D01*
X148399500Y-92150001D01*
X148399501Y-92150018D01*
X148410000Y-92252796D01*
X148410001Y-92252799D01*
X148462117Y-92410073D01*
X148465186Y-92419334D01*
X148557288Y-92568656D01*
X148681344Y-92692712D01*
X148830666Y-92784814D01*
X148997203Y-92839999D01*
X149099991Y-92850500D01*
X150025008Y-92850499D01*
X150025016Y-92850498D01*
X150025019Y-92850498D01*
X150081302Y-92844748D01*
X150127797Y-92839999D01*
X150294334Y-92784814D01*
X150443656Y-92692712D01*
X150567712Y-92568656D01*
X150659814Y-92419334D01*
X150714999Y-92252797D01*
X150725500Y-92150009D01*
X150725500Y-91874500D01*
X150745185Y-91807461D01*
X150797989Y-91761706D01*
X150849500Y-91750500D01*
X152831847Y-91750500D01*
X152861287Y-91759144D01*
X152891274Y-91765668D01*
X152896289Y-91769422D01*
X152898886Y-91770185D01*
X152919528Y-91786819D01*
X152963037Y-91830328D01*
X152996522Y-91891651D01*
X152991538Y-91961343D01*
X152949666Y-92017276D01*
X152935094Y-92026671D01*
X152836233Y-92081020D01*
X152808113Y-92105037D01*
X152808099Y-92105050D01*
X152503076Y-92410073D01*
X152503063Y-92410087D01*
X152479044Y-92438209D01*
X152399869Y-92582229D01*
X152399866Y-92582239D01*
X152358995Y-92741420D01*
X152358017Y-92749168D01*
X152354947Y-92748780D01*
X152339310Y-92802034D01*
X152286506Y-92847789D01*
X152248909Y-92855968D01*
X152249168Y-92858017D01*
X152241420Y-92858995D01*
X152082239Y-92899866D01*
X152082229Y-92899869D01*
X151938209Y-92979044D01*
X151910087Y-93003063D01*
X151910073Y-93003076D01*
X151605050Y-93308099D01*
X151605037Y-93308113D01*
X151581018Y-93336235D01*
X151501843Y-93480255D01*
X151501840Y-93480263D01*
X151488268Y-93533125D01*
X151487257Y-93534823D01*
X151487264Y-93536802D01*
X151469459Y-93564721D01*
X151452530Y-93593163D01*
X151450760Y-93594045D01*
X151449697Y-93595713D01*
X151419628Y-93609573D01*
X151390006Y-93624348D01*
X151388040Y-93624133D01*
X151386244Y-93624962D01*
X151353459Y-93620366D01*
X151320547Y-93616780D01*
X151318387Y-93615449D01*
X151317051Y-93615262D01*
X151308612Y-93609425D01*
X151287292Y-93596286D01*
X151283768Y-93593254D01*
X151204656Y-93514142D01*
X151153432Y-93479915D01*
X151147164Y-93475726D01*
X151147162Y-93475725D01*
X151102210Y-93445689D01*
X151102209Y-93445688D01*
X151102206Y-93445686D01*
X151102203Y-93445685D01*
X151028526Y-93415168D01*
X151028524Y-93415167D01*
X151021715Y-93412347D01*
X150988375Y-93398537D01*
X150927952Y-93386518D01*
X150923229Y-93385578D01*
X150923227Y-93385578D01*
X150867533Y-93374500D01*
X150867530Y-93374500D01*
X150867529Y-93374500D01*
X148067741Y-93374500D01*
X148067721Y-93374499D01*
X148061607Y-93374499D01*
X147938394Y-93374499D01*
X147837597Y-93394548D01*
X147837592Y-93394548D01*
X147817549Y-93398536D01*
X147817547Y-93398536D01*
X147770397Y-93418067D01*
X147703719Y-93445685D01*
X147703717Y-93445686D01*
X147601270Y-93514139D01*
X147601266Y-93514142D01*
X147600324Y-93515085D01*
X147599709Y-93515420D01*
X147596563Y-93518003D01*
X147596072Y-93517405D01*
X147538998Y-93548564D01*
X147469306Y-93543573D01*
X147424970Y-93515076D01*
X147227957Y-93318063D01*
X147227951Y-93318058D01*
X147227947Y-93318054D01*
X147181271Y-93280438D01*
X147050357Y-93220651D01*
X147050353Y-93220650D01*
X146907898Y-93200170D01*
X146765442Y-93220650D01*
X146765438Y-93220651D01*
X146634527Y-93280437D01*
X146587832Y-93318066D01*
X145318063Y-94587838D01*
X145318054Y-94587848D01*
X145280438Y-94634524D01*
X145220651Y-94765438D01*
X145220650Y-94765442D01*
X145200170Y-94907898D01*
X145220650Y-95050353D01*
X145220651Y-95050357D01*
X145280437Y-95181268D01*
X145280438Y-95181269D01*
X145280439Y-95181271D01*
X145318058Y-95227954D01*
X145318061Y-95227957D01*
X145318066Y-95227963D01*
X146387892Y-96297786D01*
X146587842Y-96497736D01*
X146587846Y-96497739D01*
X146587848Y-96497741D01*
X146634524Y-96535357D01*
X146765438Y-96595144D01*
X146765439Y-96595144D01*
X146765441Y-96595145D01*
X146907898Y-96615626D01*
X147050355Y-96595145D01*
X147073242Y-96584692D01*
X147177937Y-96536880D01*
X147247096Y-96526936D01*
X147310651Y-96555961D01*
X147348426Y-96614739D01*
X147353449Y-96649674D01*
X147353449Y-96810235D01*
X147374815Y-96945138D01*
X147386703Y-97020192D01*
X147445810Y-97202105D01*
X147452393Y-97222363D01*
X147548900Y-97411769D01*
X147673839Y-97583735D01*
X147824162Y-97734058D01*
X147996128Y-97858997D01*
X147996130Y-97858998D01*
X147996133Y-97859000D01*
X148185537Y-97955506D01*
X148387706Y-98021195D01*
X148597662Y-98054449D01*
X148597663Y-98054449D01*
X148810235Y-98054449D01*
X148810236Y-98054449D01*
X149020192Y-98021195D01*
X149029539Y-98018157D01*
X149099374Y-98016157D01*
X149159210Y-98052232D01*
X149190043Y-98114931D01*
X149185795Y-98174394D01*
X149182755Y-98183751D01*
X149182753Y-98183759D01*
X149149500Y-98393713D01*
X149149500Y-98606286D01*
X149175548Y-98770751D01*
X149182754Y-98816243D01*
X149237923Y-98986036D01*
X149248444Y-99018414D01*
X149344951Y-99207820D01*
X149469890Y-99379786D01*
X149620213Y-99530109D01*
X149792179Y-99655048D01*
X149792181Y-99655049D01*
X149792184Y-99655051D01*
X149981588Y-99751557D01*
X150183757Y-99817246D01*
X150393713Y-99850500D01*
X150393714Y-99850500D01*
X150606286Y-99850500D01*
X150606287Y-99850500D01*
X150816243Y-99817246D01*
X150825593Y-99814207D01*
X150895432Y-99812209D01*
X150955266Y-99848287D01*
X150986097Y-99910987D01*
X150981847Y-99970450D01*
X150978805Y-99979812D01*
X150945552Y-100189765D01*
X150945552Y-100402339D01*
X150978806Y-100612295D01*
X151034245Y-100782919D01*
X151044496Y-100814466D01*
X151141003Y-101003872D01*
X151265942Y-101175838D01*
X151416265Y-101326161D01*
X151588231Y-101451100D01*
X151588233Y-101451101D01*
X151588236Y-101451103D01*
X151698492Y-101507281D01*
X151740916Y-101528897D01*
X151791712Y-101576871D01*
X151808507Y-101644692D01*
X151785970Y-101710827D01*
X151772302Y-101727063D01*
X149661186Y-103838181D01*
X149599863Y-103871666D01*
X149573505Y-103874500D01*
X148941330Y-103874500D01*
X148874291Y-103854815D01*
X148830845Y-103806795D01*
X148795538Y-103737501D01*
X148783343Y-103713567D01*
X148644517Y-103522490D01*
X148477510Y-103355483D01*
X148286433Y-103216657D01*
X148075996Y-103109433D01*
X147851368Y-103036446D01*
X147618097Y-102999500D01*
X147618092Y-102999500D01*
X147381908Y-102999500D01*
X147381903Y-102999500D01*
X147148631Y-103036446D01*
X146924003Y-103109433D01*
X146713566Y-103216657D01*
X146604550Y-103295862D01*
X146522490Y-103355483D01*
X146522488Y-103355485D01*
X146522487Y-103355485D01*
X146355485Y-103522487D01*
X146355485Y-103522488D01*
X146355483Y-103522490D01*
X146295862Y-103604550D01*
X146216657Y-103713566D01*
X146109433Y-103924003D01*
X146036446Y-104148631D01*
X145999500Y-104381902D01*
X145999500Y-104618097D01*
X146036446Y-104851368D01*
X146109433Y-105075996D01*
X146192312Y-105238654D01*
X146216657Y-105286433D01*
X146355483Y-105477510D01*
X146522490Y-105644517D01*
X146713567Y-105783343D01*
X146812991Y-105834002D01*
X146924003Y-105890566D01*
X146924005Y-105890566D01*
X146924008Y-105890568D01*
X147044412Y-105929689D01*
X147148631Y-105963553D01*
X147381903Y-106000500D01*
X147381908Y-106000500D01*
X147618097Y-106000500D01*
X147851368Y-105963553D01*
X148075992Y-105890568D01*
X148286433Y-105783343D01*
X148477510Y-105644517D01*
X148644517Y-105477510D01*
X148783343Y-105286433D01*
X148830845Y-105193205D01*
X148878820Y-105142409D01*
X148941330Y-105125500D01*
X149945564Y-105125500D01*
X150005986Y-105113481D01*
X150066409Y-105101463D01*
X150099749Y-105087652D01*
X150180243Y-105054312D01*
X150231466Y-105020084D01*
X150282690Y-104985858D01*
X150369815Y-104898733D01*
X150369816Y-104898731D01*
X150376882Y-104891665D01*
X150376885Y-104891661D01*
X150787819Y-104480727D01*
X150849142Y-104447242D01*
X150918834Y-104452226D01*
X150974767Y-104494098D01*
X150999184Y-104559562D01*
X150999500Y-104568408D01*
X150999500Y-104618097D01*
X151036446Y-104851368D01*
X151109433Y-105075996D01*
X151192312Y-105238654D01*
X151216657Y-105286433D01*
X151355483Y-105477510D01*
X151522490Y-105644517D01*
X151713567Y-105783343D01*
X151812991Y-105834002D01*
X151924003Y-105890566D01*
X151924005Y-105890566D01*
X151924008Y-105890568D01*
X152044412Y-105929689D01*
X152148631Y-105963553D01*
X152381903Y-106000500D01*
X152381908Y-106000500D01*
X152618097Y-106000500D01*
X152851368Y-105963553D01*
X153075992Y-105890568D01*
X153286433Y-105783343D01*
X153477510Y-105644517D01*
X153644517Y-105477510D01*
X153783343Y-105286433D01*
X153890568Y-105075992D01*
X153930839Y-104952048D01*
X153937822Y-104940652D01*
X153939932Y-104930949D01*
X153961062Y-104902722D01*
X153961079Y-104902695D01*
X153965042Y-104898733D01*
X153965044Y-104898729D01*
X154455364Y-104408408D01*
X154516685Y-104374925D01*
X154586377Y-104379909D01*
X154642310Y-104421781D01*
X154653528Y-104439796D01*
X154661190Y-104454833D01*
X154719059Y-104568408D01*
X154733105Y-104595973D01*
X154858044Y-104767940D01*
X155008367Y-104918263D01*
X155180333Y-105043202D01*
X155180335Y-105043203D01*
X155180338Y-105043205D01*
X155369742Y-105139711D01*
X155571911Y-105205400D01*
X155781867Y-105238654D01*
X155781868Y-105238654D01*
X155994440Y-105238654D01*
X155994441Y-105238654D01*
X156204397Y-105205400D01*
X156406566Y-105139711D01*
X156595970Y-105043205D01*
X156674902Y-104985858D01*
X156767940Y-104918263D01*
X156767942Y-104918260D01*
X156767946Y-104918258D01*
X156918258Y-104767946D01*
X157043205Y-104595970D01*
X157115119Y-104454828D01*
X157137917Y-104423449D01*
X159660799Y-101900567D01*
X159722120Y-101867084D01*
X159791812Y-101872068D01*
X159795863Y-101873662D01*
X159855581Y-101898398D01*
X160108884Y-101966270D01*
X160357188Y-101998960D01*
X160365074Y-101999999D01*
X160368880Y-102000500D01*
X160368887Y-102000500D01*
X160631113Y-102000500D01*
X160631120Y-102000500D01*
X160891116Y-101966270D01*
X161144419Y-101898398D01*
X161386697Y-101798043D01*
X161613803Y-101666924D01*
X161821851Y-101507282D01*
X161821855Y-101507277D01*
X161821860Y-101507274D01*
X162007274Y-101321860D01*
X162007278Y-101321855D01*
X162007282Y-101321851D01*
X162011600Y-101316223D01*
X162068024Y-101275020D01*
X162137770Y-101270862D01*
X162198692Y-101305071D01*
X162231447Y-101366787D01*
X162233197Y-101405590D01*
X162197936Y-101718543D01*
X162196964Y-101725431D01*
X162082385Y-102399794D01*
X162081028Y-102406612D01*
X162041131Y-102581416D01*
X161928823Y-103073471D01*
X161927086Y-103080206D01*
X161737722Y-103737501D01*
X161735610Y-103744127D01*
X161509694Y-104389760D01*
X161507213Y-104396259D01*
X161245452Y-105028206D01*
X161242611Y-105034555D01*
X160945828Y-105650831D01*
X160942636Y-105657010D01*
X160611762Y-106255680D01*
X160608228Y-106261671D01*
X160244309Y-106840845D01*
X160240445Y-106846628D01*
X159844623Y-107404489D01*
X159840440Y-107410047D01*
X159413965Y-107944828D01*
X159409478Y-107950142D01*
X158953675Y-108460186D01*
X158948896Y-108465240D01*
X158465240Y-108948896D01*
X158460186Y-108953675D01*
X157950142Y-109409478D01*
X157944828Y-109413965D01*
X157410047Y-109840440D01*
X157404489Y-109844623D01*
X156846628Y-110240445D01*
X156840845Y-110244309D01*
X156261671Y-110608228D01*
X156255680Y-110611762D01*
X155657010Y-110942636D01*
X155650831Y-110945828D01*
X155034555Y-111242611D01*
X155028206Y-111245452D01*
X154396259Y-111507213D01*
X154389760Y-111509694D01*
X153744127Y-111735610D01*
X153737501Y-111737722D01*
X153080206Y-111927086D01*
X153073471Y-111928823D01*
X152406616Y-112081028D01*
X152399794Y-112082385D01*
X151725431Y-112196964D01*
X151718544Y-112197936D01*
X151038839Y-112274520D01*
X151031908Y-112275105D01*
X150348960Y-112313459D01*
X150342007Y-112313654D01*
X149657993Y-112313654D01*
X149651040Y-112313459D01*
X148968091Y-112275105D01*
X148961160Y-112274520D01*
X148281455Y-112197936D01*
X148274568Y-112196964D01*
X147937386Y-112139674D01*
X147600202Y-112082384D01*
X147593394Y-112081030D01*
X146926528Y-111928823D01*
X146919793Y-111927086D01*
X146262498Y-111737722D01*
X146255872Y-111735610D01*
X145610239Y-111509694D01*
X145603740Y-111507213D01*
X144971793Y-111245452D01*
X144965444Y-111242611D01*
X144349168Y-110945828D01*
X144342989Y-110942636D01*
X143744319Y-110611762D01*
X143738328Y-110608228D01*
X143159154Y-110244309D01*
X143153371Y-110240445D01*
X142744956Y-109950660D01*
X142595499Y-109844614D01*
X142589963Y-109840448D01*
X142055165Y-109413960D01*
X142049857Y-109409478D01*
X141539813Y-108953675D01*
X141534759Y-108948896D01*
X141051103Y-108465240D01*
X141046324Y-108460186D01*
X140590521Y-107950142D01*
X140586034Y-107944828D01*
X140159546Y-107410030D01*
X140155389Y-107404506D01*
X139759550Y-106846622D01*
X139755690Y-106840845D01*
X139753530Y-106837408D01*
X139631800Y-106643676D01*
X139391771Y-106261671D01*
X139388237Y-106255680D01*
X139057363Y-105657010D01*
X139054171Y-105650831D01*
X139051130Y-105644517D01*
X138757384Y-105034547D01*
X138754547Y-105028206D01*
X138737006Y-104985858D01*
X138492779Y-104396242D01*
X138490311Y-104389778D01*
X138264384Y-103744111D01*
X138262277Y-103737501D01*
X138072908Y-103080189D01*
X138071182Y-103073496D01*
X137918963Y-102406578D01*
X137917620Y-102399824D01*
X137803031Y-101725404D01*
X137802067Y-101718572D01*
X137725478Y-101038832D01*
X137724894Y-101031908D01*
X137724602Y-101026714D01*
X137686541Y-100348960D01*
X137686346Y-100342007D01*
X137686346Y-99868905D01*
X139100000Y-99868905D01*
X139100000Y-100131094D01*
X139134220Y-100391009D01*
X139134222Y-100391020D01*
X139202075Y-100644255D01*
X139302404Y-100886471D01*
X139302409Y-100886482D01*
X139433488Y-101113516D01*
X139433494Y-101113524D01*
X139520080Y-101226365D01*
X140617037Y-100129408D01*
X140634075Y-100192993D01*
X140699901Y-100307007D01*
X140792993Y-100400099D01*
X140907007Y-100465925D01*
X140970590Y-100482962D01*
X139873633Y-101579917D01*
X139873633Y-101579918D01*
X139986475Y-101666505D01*
X139986483Y-101666511D01*
X140213517Y-101797590D01*
X140213528Y-101797595D01*
X140455744Y-101897924D01*
X140708979Y-101965777D01*
X140708990Y-101965779D01*
X140968905Y-101999999D01*
X140968920Y-102000000D01*
X141231080Y-102000000D01*
X141231094Y-101999999D01*
X141491009Y-101965779D01*
X141491020Y-101965777D01*
X141744255Y-101897924D01*
X141986471Y-101797595D01*
X141986482Y-101797590D01*
X142213516Y-101666511D01*
X142213534Y-101666499D01*
X142326365Y-101579919D01*
X142326365Y-101579917D01*
X141229409Y-100482962D01*
X141292993Y-100465925D01*
X141407007Y-100400099D01*
X141500099Y-100307007D01*
X141565925Y-100192993D01*
X141582962Y-100129410D01*
X142679917Y-101226365D01*
X142679919Y-101226365D01*
X142766499Y-101113534D01*
X142766511Y-101113516D01*
X142897590Y-100886482D01*
X142897595Y-100886471D01*
X142997924Y-100644255D01*
X143065777Y-100391020D01*
X143065779Y-100391009D01*
X143099999Y-100131094D01*
X143100000Y-100131080D01*
X143100000Y-99868919D01*
X143099999Y-99868905D01*
X143065779Y-99608990D01*
X143065777Y-99608979D01*
X142997924Y-99355744D01*
X142897595Y-99113528D01*
X142897590Y-99113517D01*
X142766511Y-98886483D01*
X142766505Y-98886475D01*
X142679918Y-98773633D01*
X142679917Y-98773633D01*
X141582962Y-99870588D01*
X141565925Y-99807007D01*
X141500099Y-99692993D01*
X141407007Y-99599901D01*
X141292993Y-99534075D01*
X141229407Y-99517037D01*
X142326365Y-98420080D01*
X142213524Y-98333494D01*
X142213516Y-98333488D01*
X141986482Y-98202409D01*
X141986471Y-98202404D01*
X141744255Y-98102075D01*
X141491020Y-98034222D01*
X141491009Y-98034220D01*
X141231094Y-98000000D01*
X140968905Y-98000000D01*
X140708990Y-98034220D01*
X140708979Y-98034222D01*
X140455744Y-98102075D01*
X140213528Y-98202404D01*
X140213517Y-98202409D01*
X139986471Y-98333496D01*
X139873633Y-98420079D01*
X139873633Y-98420080D01*
X140970590Y-99517037D01*
X140907007Y-99534075D01*
X140792993Y-99599901D01*
X140699901Y-99692993D01*
X140634075Y-99807007D01*
X140617037Y-99870590D01*
X139520080Y-98773633D01*
X139520079Y-98773633D01*
X139433496Y-98886471D01*
X139302409Y-99113517D01*
X139302404Y-99113528D01*
X139202075Y-99355744D01*
X139134222Y-99608979D01*
X139134220Y-99608990D01*
X139100000Y-99868905D01*
X137686346Y-99868905D01*
X137686346Y-99657992D01*
X137686541Y-99651039D01*
X137690068Y-99588231D01*
X137724894Y-98968080D01*
X137725479Y-98961161D01*
X137730232Y-98918979D01*
X137802067Y-98281422D01*
X137803030Y-98274600D01*
X137917621Y-97600168D01*
X137918961Y-97593428D01*
X138071184Y-96926495D01*
X138072906Y-96919819D01*
X138262284Y-96262473D01*
X138264380Y-96255898D01*
X138490316Y-95610209D01*
X138492774Y-95603768D01*
X138754556Y-94971771D01*
X138757378Y-94965465D01*
X139054182Y-94349145D01*
X139057351Y-94343011D01*
X139388238Y-93744316D01*
X139391771Y-93738328D01*
X139463004Y-93624962D01*
X139755705Y-93159131D01*
X139759538Y-93153394D01*
X140155401Y-92595475D01*
X140159533Y-92589986D01*
X140510421Y-92149986D01*
X145275001Y-92149986D01*
X145285494Y-92252697D01*
X145340641Y-92419119D01*
X145340643Y-92419124D01*
X145432684Y-92568345D01*
X145556654Y-92692315D01*
X145705875Y-92784356D01*
X145705880Y-92784358D01*
X145872302Y-92839505D01*
X145872309Y-92839506D01*
X145975019Y-92849999D01*
X146187499Y-92849999D01*
X146687500Y-92849999D01*
X146899972Y-92849999D01*
X146899986Y-92849998D01*
X147002697Y-92839505D01*
X147169119Y-92784358D01*
X147169124Y-92784356D01*
X147318345Y-92692315D01*
X147442315Y-92568345D01*
X147534356Y-92419124D01*
X147534358Y-92419119D01*
X147589505Y-92252697D01*
X147589506Y-92252690D01*
X147599999Y-92149986D01*
X147600000Y-92149973D01*
X147600000Y-91250000D01*
X146687500Y-91250000D01*
X146687500Y-92849999D01*
X146187499Y-92849999D01*
X146187500Y-92849998D01*
X146187500Y-91250000D01*
X145275001Y-91250000D01*
X145275001Y-92149986D01*
X140510421Y-92149986D01*
X140586056Y-92055143D01*
X140590497Y-92049884D01*
X141046340Y-91539795D01*
X141051085Y-91534777D01*
X141534777Y-91051085D01*
X141539795Y-91046340D01*
X142049884Y-90590497D01*
X142055143Y-90586056D01*
X142589986Y-90159533D01*
X142595475Y-90155401D01*
X143025881Y-89850013D01*
X145275000Y-89850013D01*
X145275000Y-90750000D01*
X146187500Y-90750000D01*
X146687500Y-90750000D01*
X147599999Y-90750000D01*
X147599999Y-89850028D01*
X147599998Y-89850013D01*
X147589505Y-89747302D01*
X147534358Y-89580880D01*
X147534356Y-89580875D01*
X147442315Y-89431654D01*
X147318345Y-89307684D01*
X147169124Y-89215643D01*
X147169119Y-89215641D01*
X147002697Y-89160494D01*
X147002690Y-89160493D01*
X146899986Y-89150000D01*
X146687500Y-89150000D01*
X146687500Y-90750000D01*
X146187500Y-90750000D01*
X146187500Y-89150000D01*
X145975029Y-89150000D01*
X145975012Y-89150001D01*
X145872302Y-89160494D01*
X145705880Y-89215641D01*
X145705875Y-89215643D01*
X145556654Y-89307684D01*
X145432684Y-89431654D01*
X145340643Y-89580875D01*
X145340641Y-89580880D01*
X145285494Y-89747302D01*
X145285493Y-89747309D01*
X145275000Y-89850013D01*
X143025881Y-89850013D01*
X143153394Y-89759538D01*
X143159139Y-89755699D01*
X143738330Y-89391769D01*
X143744319Y-89388237D01*
X144343011Y-89057351D01*
X144349145Y-89054182D01*
X144965465Y-88757378D01*
X144971771Y-88754556D01*
X145603768Y-88492774D01*
X145610209Y-88490316D01*
X146255898Y-88264380D01*
X146262473Y-88262284D01*
X146919819Y-88072906D01*
X146926495Y-88071184D01*
X147593428Y-87918961D01*
X147600168Y-87917621D01*
X148274600Y-87803030D01*
X148281422Y-87802067D01*
X148961170Y-87725478D01*
X148968080Y-87724894D01*
X149651040Y-87686541D01*
X149657993Y-87686346D01*
X150342007Y-87686346D01*
X150348960Y-87686541D01*
G37*
%TD.AperFunction*%
%TA.AperFunction,Conductor*%
G36*
X155269608Y-98479531D02*
G01*
X155313955Y-98508032D01*
X155492146Y-98686223D01*
X155525631Y-98747546D01*
X155520647Y-98817238D01*
X155492146Y-98861585D01*
X155014142Y-99339588D01*
X155014142Y-99339589D01*
X155337371Y-99662819D01*
X155370856Y-99724142D01*
X155365872Y-99793834D01*
X155324000Y-99849767D01*
X155258536Y-99874184D01*
X155249690Y-99874500D01*
X153822346Y-99874500D01*
X153761929Y-99886517D01*
X153761928Y-99886518D01*
X153737014Y-99891473D01*
X153701918Y-99898454D01*
X153632326Y-99892225D01*
X153577150Y-99849361D01*
X153559798Y-99815153D01*
X153547611Y-99777645D01*
X153547609Y-99777639D01*
X153480762Y-99646446D01*
X153451103Y-99588236D01*
X153451101Y-99588233D01*
X153451100Y-99588231D01*
X153326161Y-99416265D01*
X153311849Y-99401953D01*
X153278364Y-99340630D01*
X153283348Y-99270938D01*
X153311845Y-99226596D01*
X154019603Y-98518838D01*
X154080922Y-98485356D01*
X154150614Y-98490340D01*
X154201564Y-98525983D01*
X154207584Y-98533031D01*
X154207603Y-98533051D01*
X154660588Y-98986036D01*
X155138593Y-98508032D01*
X155199916Y-98474547D01*
X155269608Y-98479531D01*
G37*
%TD.AperFunction*%
%TD*%
M02*
