M48
; DRILL file {KiCad 9.0.6-9.0.6~ubuntu24.04.1} date 2025-12-16T20:42:33-0800
; FORMAT={-:-/ absolute / metric / decimal}
; #@! TF.CreationDate,2025-12-16T20:42:33-08:00
; #@! TF.GenerationSoftware,Kicad,Pcbnew,9.0.6-9.0.6~ubuntu24.04.1
; #@! TF.FileFunction,Plated,1,2,PTH
FMAT,2
METRIC
; #@! TA.AperFunction,Plated,PTH,ViaDrill
T1C0.300
; #@! TA.AperFunction,Plated,PTH,ComponentDrill
T2C1.000
%
G90
G05
T1
X140.0Y-97.5
X140.0Y-102.5
X140.0Y-105.0
X142.5Y-102.5
X142.5Y-105.0
X142.5Y-107.5
X145.0Y-90.0
X145.0Y-92.5
X145.0Y-97.5
X145.0Y-100.0
X145.0Y-102.5
X145.0Y-105.0
X145.0Y-107.5
X145.0Y-110.0
X147.5Y-100.0
X147.5Y-102.5
X147.5Y-107.5
X147.5Y-110.0
X150.0Y-100.0
X150.0Y-102.5
X150.0Y-107.5
X150.0Y-110.0
X152.5Y-90.0
X152.5Y-107.5
X152.5Y-110.0
X153.883Y-99.15
X154.627Y-99.56
X155.0Y-90.0
X155.0Y-107.5
X155.0Y-110.0
X157.5Y-105.0
X157.5Y-107.5
X160.0Y-102.5
X160.0Y-105.0
T2
X141.1Y-100.0
X146.908Y-94.908
X147.5Y-104.5
X148.704Y-96.704
X150.5Y-98.5
X152.296Y-100.296
X152.5Y-104.5
X154.092Y-102.092
X155.888Y-103.888
X160.5Y-100.0
M30
