%TF.GenerationSoftware,KiCad,Pcbnew,9.0.6-9.0.6~ubuntu24.04.1*%
%TF.CreationDate,2025-12-16T20:38:13-08:00*%
%TF.ProjectId,Shy_Beeper,5368795f-4265-4657-9065-722e6b696361,rev?*%
%TF.SameCoordinates,Original*%
%TF.FileFunction,Soldermask,Top*%
%TF.FilePolarity,Negative*%
%FSLAX46Y46*%
G04 Gerber Fmt 4.6, Leading zero omitted, Abs format (unit mm)*
G04 Created by KiCad (PCBNEW 9.0.6-9.0.6~ubuntu24.04.1) date 2025-12-16 20:38:13*
%MOMM*%
%LPD*%
G01*
G04 APERTURE LIST*
G04 Aperture macros list*
%AMRotRect*
0 Rectangle, with rotation*
0 The origin of the aperture is its center*
0 $1 length*
0 $2 width*
0 $3 Rotation angle, in degrees counterclockwise*
0 Add horizontal line*
21,1,$1,$2,0,0,$3*%
G04 Aperture macros list end*
%ADD10C,0.000000*%
%ADD11RotRect,1.700000X1.700000X45.000000*%
%ADD12C,1.700000*%
%ADD13C,2.000000*%
%ADD14C,3.000000*%
G04 APERTURE END LIST*
D10*
%TO.C,G\u002A\u002A\u002A*%
G36*
X153418818Y-95923697D02*
G01*
X153456704Y-95946800D01*
X153513433Y-95987304D01*
X153586386Y-96042370D01*
X153706430Y-96128333D01*
X153858850Y-96227401D01*
X154044375Y-96340036D01*
X154150551Y-96402033D01*
X154278823Y-96476564D01*
X154377464Y-96535335D01*
X154449248Y-96580549D01*
X154496949Y-96614404D01*
X154523346Y-96639102D01*
X154531212Y-96656847D01*
X154523325Y-96669840D01*
X154502458Y-96680282D01*
X154501683Y-96680571D01*
X154486599Y-96681678D01*
X154462217Y-96675093D01*
X154424814Y-96658909D01*
X154370675Y-96631222D01*
X154296079Y-96590133D01*
X154197312Y-96533732D01*
X154070651Y-96460115D01*
X154066846Y-96457894D01*
X153949613Y-96388713D01*
X153837005Y-96320995D01*
X153734949Y-96258401D01*
X153649372Y-96204590D01*
X153586200Y-96163225D01*
X153560230Y-96144946D01*
X153468109Y-96074545D01*
X153404467Y-96021213D01*
X153366763Y-95981763D01*
X153352451Y-95952999D01*
X153358996Y-95931731D01*
X153378913Y-95917237D01*
X153394610Y-95914884D01*
X153418818Y-95923697D01*
G37*
G36*
X153037863Y-95551272D02*
G01*
X153087450Y-95593901D01*
X153103857Y-95612630D01*
X153137594Y-95651820D01*
X153159987Y-95675015D01*
X153164675Y-95677956D01*
X153205744Y-95652398D01*
X153245577Y-95640777D01*
X153262432Y-95643261D01*
X153271514Y-95665725D01*
X153279765Y-95717135D01*
X153286175Y-95789391D01*
X153289351Y-95858651D01*
X153290598Y-95957453D01*
X153286867Y-96030429D01*
X153276672Y-96088648D01*
X153258531Y-96143174D01*
X153247811Y-96168483D01*
X153223015Y-96228882D01*
X153206217Y-96278289D01*
X153201380Y-96302485D01*
X153215784Y-96329040D01*
X153251292Y-96364805D01*
X153272331Y-96381565D01*
X153313901Y-96414995D01*
X153328877Y-96437805D01*
X153322159Y-96458888D01*
X153318040Y-96464454D01*
X153285318Y-96479830D01*
X153239332Y-96470519D01*
X153189434Y-96441178D01*
X153144979Y-96396473D01*
X153127545Y-96369506D01*
X153114220Y-96341175D01*
X153108192Y-96313110D01*
X153110695Y-96278344D01*
X153122962Y-96229904D01*
X153146224Y-96160821D01*
X153181378Y-96065031D01*
X153193762Y-96010492D01*
X153198682Y-95944649D01*
X153198423Y-95930716D01*
X153190262Y-95874634D01*
X153166165Y-95826735D01*
X153121449Y-95774816D01*
X153045819Y-95692101D01*
X152994735Y-95625916D01*
X152969804Y-95578580D01*
X152969725Y-95555917D01*
X152997259Y-95538035D01*
X153037863Y-95551272D01*
G37*
G36*
X153135174Y-93357286D02*
G01*
X153151583Y-93389636D01*
X153152036Y-93452956D01*
X153143608Y-93513658D01*
X153125014Y-93650097D01*
X153112036Y-93806282D01*
X153105731Y-93965186D01*
X153106933Y-94104363D01*
X153110998Y-94176420D01*
X153118341Y-94220697D01*
X153132288Y-94246469D01*
X153156166Y-94263016D01*
X153165428Y-94267415D01*
X153203492Y-94279018D01*
X153223921Y-94274480D01*
X153224330Y-94273522D01*
X153229978Y-94249293D01*
X153241054Y-94196351D01*
X153255986Y-94122368D01*
X153273203Y-94035017D01*
X153274173Y-94030043D01*
X153297507Y-93920474D01*
X153325775Y-93802986D01*
X153354890Y-93693954D01*
X153373964Y-93630253D01*
X153400421Y-93549707D01*
X153419882Y-93497777D01*
X153435919Y-93467563D01*
X153452102Y-93452167D01*
X153469718Y-93445283D01*
X153497419Y-93442378D01*
X153511751Y-93455120D01*
X153512704Y-93488054D01*
X153500263Y-93545726D01*
X153474421Y-93632684D01*
X153469194Y-93649140D01*
X153444886Y-93731455D01*
X153419513Y-93827964D01*
X153394545Y-93931714D01*
X153371445Y-94035751D01*
X153351682Y-94133121D01*
X153336725Y-94216870D01*
X153328036Y-94280044D01*
X153327084Y-94315692D01*
X153327913Y-94318807D01*
X153346515Y-94345380D01*
X153382695Y-94385457D01*
X153406948Y-94409566D01*
X153466122Y-94477283D01*
X153495928Y-94543643D01*
X153501807Y-94617810D01*
X153507150Y-94658463D01*
X153532475Y-94694700D01*
X153570253Y-94727048D01*
X153606820Y-94759380D01*
X153662082Y-94813331D01*
X153730083Y-94882854D01*
X153804869Y-94961907D01*
X153853567Y-95014734D01*
X154065915Y-95247558D01*
X154239493Y-95206430D01*
X154513228Y-95152177D01*
X154774781Y-95121458D01*
X155018077Y-95114857D01*
X155130613Y-95120752D01*
X155264972Y-95138342D01*
X155365473Y-95166930D01*
X155433999Y-95207725D01*
X155472428Y-95261939D01*
X155482644Y-95330781D01*
X155481450Y-95346563D01*
X155475578Y-95377581D01*
X155462667Y-95416345D01*
X155440582Y-95467305D01*
X155407181Y-95534906D01*
X155360327Y-95623601D01*
X155297883Y-95737835D01*
X155264096Y-95798813D01*
X155205320Y-95905616D01*
X155153821Y-96001175D01*
X155111974Y-96080919D01*
X155082153Y-96140278D01*
X155066729Y-96174689D01*
X155065381Y-96181460D01*
X155082637Y-96194352D01*
X155124160Y-96226470D01*
X155185142Y-96274060D01*
X155260776Y-96333373D01*
X155340541Y-96396152D01*
X155464325Y-96495101D01*
X155560582Y-96575562D01*
X155632054Y-96640411D01*
X155681482Y-96692532D01*
X155711611Y-96734801D01*
X155725181Y-96770099D01*
X155725183Y-96800068D01*
X155695052Y-96869980D01*
X155637276Y-96917962D01*
X155554374Y-96943616D01*
X155448858Y-96946538D01*
X155323243Y-96926328D01*
X155188369Y-96885623D01*
X155111977Y-96860062D01*
X155056763Y-96848299D01*
X155010139Y-96848872D01*
X154962735Y-96859397D01*
X154870752Y-96870773D01*
X154811441Y-96858489D01*
X154733579Y-96829001D01*
X154681485Y-96814012D01*
X154646076Y-96815446D01*
X154618265Y-96835229D01*
X154588971Y-96875283D01*
X154566583Y-96910347D01*
X154530026Y-96970397D01*
X154511701Y-97010326D01*
X154508354Y-97040193D01*
X154515699Y-97067429D01*
X154549752Y-97115055D01*
X154605711Y-97156852D01*
X154648775Y-97183862D01*
X154664181Y-97203006D01*
X154657340Y-97223131D01*
X154651280Y-97231294D01*
X154617425Y-97248454D01*
X154570486Y-97240439D01*
X154518147Y-97212760D01*
X154468100Y-97170923D01*
X154428030Y-97120439D01*
X154405626Y-97066814D01*
X154403719Y-97053916D01*
X154406189Y-97025913D01*
X154418920Y-96987412D01*
X154443633Y-96935431D01*
X154482057Y-96866989D01*
X154535916Y-96779103D01*
X154590674Y-96694054D01*
X154715539Y-96694054D01*
X154728323Y-96719459D01*
X154766936Y-96744931D01*
X154820531Y-96765282D01*
X154878257Y-96775325D01*
X154886138Y-96775615D01*
X154905199Y-96773130D01*
X154900782Y-96762075D01*
X154869608Y-96738531D01*
X154837252Y-96717137D01*
X154778507Y-96680815D01*
X154743092Y-96665165D01*
X154724462Y-96668945D01*
X154716066Y-96690916D01*
X154715539Y-96694054D01*
X154590674Y-96694054D01*
X154606937Y-96668795D01*
X154639381Y-96619824D01*
X154671819Y-96570859D01*
X154819586Y-96570859D01*
X154821505Y-96580398D01*
X154845759Y-96603837D01*
X154897164Y-96636909D01*
X154968269Y-96676016D01*
X155051615Y-96717557D01*
X155139750Y-96757932D01*
X155225219Y-96793538D01*
X155300566Y-96820776D01*
X155345377Y-96833420D01*
X155433956Y-96847342D01*
X155513769Y-96848516D01*
X155577296Y-96837872D01*
X155617019Y-96816345D01*
X155626299Y-96798577D01*
X155617213Y-96766416D01*
X155588450Y-96724998D01*
X155577408Y-96713138D01*
X155541891Y-96680891D01*
X155483933Y-96631915D01*
X155410441Y-96571694D01*
X155328322Y-96505712D01*
X155244483Y-96439457D01*
X155165826Y-96378412D01*
X155099259Y-96328066D01*
X155051687Y-96293900D01*
X155040219Y-96286418D01*
X154992874Y-96257263D01*
X154900998Y-96405662D01*
X154854269Y-96484493D01*
X154827799Y-96538095D01*
X154819586Y-96570859D01*
X154671819Y-96570859D01*
X154696847Y-96533079D01*
X154757751Y-96442406D01*
X154764276Y-96432535D01*
X154838714Y-96319909D01*
X154923031Y-96188039D01*
X155007774Y-96051767D01*
X155090014Y-95916062D01*
X155166825Y-95785893D01*
X155235280Y-95666228D01*
X155292449Y-95562036D01*
X155335410Y-95478287D01*
X155361229Y-95419951D01*
X155362923Y-95415226D01*
X155377326Y-95358084D01*
X155380841Y-95309250D01*
X155379135Y-95298178D01*
X155369977Y-95276257D01*
X155350939Y-95261038D01*
X155313211Y-95248202D01*
X155247973Y-95233428D01*
X155246272Y-95233072D01*
X155124931Y-95215817D01*
X154986534Y-95209987D01*
X154835541Y-95214551D01*
X154676411Y-95228472D01*
X154513603Y-95250722D01*
X154351572Y-95280266D01*
X154194783Y-95316075D01*
X154047690Y-95357113D01*
X153914755Y-95402350D01*
X153800435Y-95450753D01*
X153709189Y-95501290D01*
X153645479Y-95552929D01*
X153613759Y-95604635D01*
X153612206Y-95611378D01*
X153614490Y-95691637D01*
X153649813Y-95762144D01*
X153714668Y-95819235D01*
X153805546Y-95859250D01*
X153862077Y-95872119D01*
X153944745Y-95880016D01*
X154029847Y-95875169D01*
X154121410Y-95856053D01*
X154223462Y-95821139D01*
X154340035Y-95768902D01*
X154475155Y-95697817D01*
X154632852Y-95606357D01*
X154746182Y-95537233D01*
X154888534Y-95451037D01*
X155003594Y-95385684D01*
X155093796Y-95339906D01*
X155161580Y-95312430D01*
X155194627Y-95303811D01*
X155255146Y-95297862D01*
X155292449Y-95309941D01*
X155317793Y-95344483D01*
X155322242Y-95354083D01*
X155330797Y-95386500D01*
X155313027Y-95403678D01*
X155303578Y-95407484D01*
X155261250Y-95411670D01*
X155240158Y-95405272D01*
X155206098Y-95401660D01*
X155158564Y-95413480D01*
X155152282Y-95416075D01*
X155109274Y-95437501D01*
X155046657Y-95472104D01*
X154971053Y-95515847D01*
X154889085Y-95564694D01*
X154807375Y-95614608D01*
X154732548Y-95661550D01*
X154671223Y-95701489D01*
X154630027Y-95730384D01*
X154615918Y-95742994D01*
X154611454Y-95753327D01*
X154613586Y-95765093D01*
X154626360Y-95782771D01*
X154653816Y-95810845D01*
X154699995Y-95853794D01*
X154768943Y-95916103D01*
X154785488Y-95930981D01*
X154843811Y-95985001D01*
X154878004Y-96021969D01*
X154892644Y-96048252D01*
X154892312Y-96070221D01*
X154890145Y-96076503D01*
X154876623Y-96095719D01*
X154854757Y-96098202D01*
X154820624Y-96081750D01*
X154770306Y-96044153D01*
X154699882Y-95983204D01*
X154659767Y-95946822D01*
X154601475Y-95894361D01*
X154551473Y-95850980D01*
X154517441Y-95823272D01*
X154509363Y-95817664D01*
X154480927Y-95818406D01*
X154432517Y-95835028D01*
X154385071Y-95858367D01*
X154311886Y-95893164D01*
X154224198Y-95926558D01*
X154159091Y-95946335D01*
X154097106Y-95963360D01*
X154052539Y-95977550D01*
X154034278Y-95986054D01*
X154034228Y-95986442D01*
X154049444Y-96000922D01*
X154090910Y-96035196D01*
X154155357Y-96086675D01*
X154239500Y-96152770D01*
X154340071Y-96230890D01*
X154453791Y-96318448D01*
X154469335Y-96330362D01*
X154546099Y-96391128D01*
X154594993Y-96435563D01*
X154619110Y-96467684D01*
X154621542Y-96491510D01*
X154607255Y-96509590D01*
X154594390Y-96514740D01*
X154574960Y-96511615D01*
X154545875Y-96498126D01*
X154504044Y-96472191D01*
X154446380Y-96431721D01*
X154369796Y-96374633D01*
X154271196Y-96298838D01*
X154147502Y-96202254D01*
X154119205Y-96180042D01*
X154016070Y-96100008D01*
X153937057Y-96041138D01*
X153878026Y-96000631D01*
X153834845Y-95975682D01*
X153803375Y-95963488D01*
X153798270Y-95962359D01*
X153690511Y-95924433D01*
X153604393Y-95857163D01*
X153542693Y-95763092D01*
X153522723Y-95709694D01*
X153496261Y-95647918D01*
X153450144Y-95580113D01*
X153379140Y-95498606D01*
X153377931Y-95497315D01*
X153308417Y-95420010D01*
X153233708Y-95331837D01*
X153168258Y-95249932D01*
X153159226Y-95238041D01*
X153112555Y-95179208D01*
X153072092Y-95133991D01*
X153044101Y-95109164D01*
X153037321Y-95106443D01*
X153009535Y-95123630D01*
X152981860Y-95165917D01*
X152959757Y-95221746D01*
X152948683Y-95279551D01*
X152948312Y-95294932D01*
X152953240Y-95342649D01*
X152972210Y-95368947D01*
X153013790Y-95388460D01*
X153054355Y-95406077D01*
X153065478Y-95421434D01*
X153053043Y-95443452D01*
X153051400Y-95445525D01*
X153030551Y-95460825D01*
X152995045Y-95466894D01*
X152937506Y-95464061D01*
X152859832Y-95454030D01*
X152782241Y-95444150D01*
X152716044Y-95438525D01*
X152671640Y-95437928D01*
X152662018Y-95439353D01*
X152638031Y-95455907D01*
X152594706Y-95494623D01*
X152537605Y-95550215D01*
X152472285Y-95617406D01*
X152452238Y-95638692D01*
X152363902Y-95730245D01*
X152296499Y-95793376D01*
X152248691Y-95829276D01*
X152227217Y-95838630D01*
X152176571Y-95837316D01*
X152116109Y-95819265D01*
X152057762Y-95790271D01*
X152013461Y-95756127D01*
X151995509Y-95726094D01*
X151997847Y-95692983D01*
X152022129Y-95682329D01*
X152071480Y-95693776D01*
X152116989Y-95712235D01*
X152167678Y-95732937D01*
X152203780Y-95744470D01*
X152212820Y-95745391D01*
X152229681Y-95731239D01*
X152266490Y-95695025D01*
X152318110Y-95641958D01*
X152379403Y-95577240D01*
X152390587Y-95565270D01*
X152473158Y-95477958D01*
X152536728Y-95415066D01*
X152586700Y-95373137D01*
X152628478Y-95348712D01*
X152667466Y-95338334D01*
X152709074Y-95338547D01*
X152738766Y-95342512D01*
X152791530Y-95348896D01*
X152826518Y-95349230D01*
X152833844Y-95346628D01*
X152842461Y-95318410D01*
X152850472Y-95272016D01*
X152856276Y-95221267D01*
X152858276Y-95179985D01*
X152855203Y-95162131D01*
X152831156Y-95162588D01*
X152793455Y-95172219D01*
X152731593Y-95182464D01*
X152666190Y-95178126D01*
X152612461Y-95161177D01*
X152592464Y-95146143D01*
X152556734Y-95077651D01*
X152542847Y-94993023D01*
X152631422Y-94993023D01*
X152637138Y-95029955D01*
X152649841Y-95068763D01*
X152673971Y-95083535D01*
X152703517Y-95086355D01*
X152762977Y-95082192D01*
X152814237Y-95070986D01*
X152915447Y-95029604D01*
X153140882Y-95029604D01*
X153149242Y-95059745D01*
X153177931Y-95106434D01*
X153209732Y-95151456D01*
X153248709Y-95202376D01*
X153299992Y-95264948D01*
X153357263Y-95331983D01*
X153414209Y-95396305D01*
X153464507Y-95450728D01*
X153501850Y-95488075D01*
X153515960Y-95499654D01*
X153544975Y-95497456D01*
X153590716Y-95470106D01*
X153611171Y-95453700D01*
X153665869Y-95414854D01*
X153739026Y-95372833D01*
X153810358Y-95338728D01*
X153872784Y-95311315D01*
X153920331Y-95288587D01*
X153943980Y-95274891D01*
X153944920Y-95273865D01*
X153935717Y-95256987D01*
X153905852Y-95218805D01*
X153860243Y-95164823D01*
X153803807Y-95100543D01*
X153741459Y-95031470D01*
X153678117Y-94963103D01*
X153618702Y-94900951D01*
X153568126Y-94850516D01*
X153558504Y-94841380D01*
X153498109Y-94790950D01*
X153454284Y-94770158D01*
X153423066Y-94777794D01*
X153408668Y-94795645D01*
X153381932Y-94827333D01*
X153334488Y-94871531D01*
X153276250Y-94919889D01*
X153217140Y-94964056D01*
X153179524Y-94988619D01*
X153151446Y-95008425D01*
X153140882Y-95029604D01*
X152915447Y-95029604D01*
X152918844Y-95028215D01*
X153036034Y-94964719D01*
X153054741Y-94952592D01*
X153154382Y-94887995D01*
X153262461Y-94805539D01*
X153348843Y-94724850D01*
X153359174Y-94713419D01*
X153397570Y-94646027D01*
X153401483Y-94575180D01*
X153372420Y-94506243D01*
X153311882Y-94444576D01*
X153277386Y-94422107D01*
X153211942Y-94389180D01*
X153167628Y-94380054D01*
X153137218Y-94394677D01*
X153119270Y-94421034D01*
X153089516Y-94459316D01*
X153061921Y-94462062D01*
X153041504Y-94429756D01*
X153037496Y-94413112D01*
X153014749Y-94361605D01*
X152970654Y-94339872D01*
X152907620Y-94346410D01*
X152874774Y-94357883D01*
X152848144Y-94376780D01*
X152820789Y-94410583D01*
X152785769Y-94466771D01*
X152768628Y-94496203D01*
X152704355Y-94626142D01*
X152658679Y-94757874D01*
X152633676Y-94882977D01*
X152631422Y-94993023D01*
X152542847Y-94993023D01*
X152540689Y-94979870D01*
X152544671Y-94855115D01*
X152546779Y-94836185D01*
X152555356Y-94771359D01*
X152565591Y-94719783D01*
X152581058Y-94672089D01*
X152605341Y-94618906D01*
X152642012Y-94550867D01*
X152683642Y-94477757D01*
X152696849Y-94454760D01*
X152802302Y-94271138D01*
X152907044Y-94249614D01*
X152960676Y-94237657D01*
X152993562Y-94223309D01*
X153009989Y-94198515D01*
X153014244Y-94155215D01*
X153010617Y-94085356D01*
X153008681Y-94058664D01*
X153007378Y-93987546D01*
X153010852Y-93890884D01*
X153018254Y-93779763D01*
X153028723Y-93665266D01*
X153041408Y-93558474D01*
X153053001Y-93483657D01*
X153069051Y-93410048D01*
X153085676Y-93368423D01*
X153102376Y-93354226D01*
X153135174Y-93357286D01*
G37*
G36*
X149118818Y-92123697D02*
G01*
X149156704Y-92146800D01*
X149213433Y-92187304D01*
X149286386Y-92242370D01*
X149406430Y-92328333D01*
X149558850Y-92427401D01*
X149744375Y-92540036D01*
X149850551Y-92602033D01*
X149978823Y-92676564D01*
X150077464Y-92735335D01*
X150149248Y-92780549D01*
X150196949Y-92814404D01*
X150223346Y-92839102D01*
X150231212Y-92856847D01*
X150223325Y-92869840D01*
X150202458Y-92880282D01*
X150201683Y-92880571D01*
X150186599Y-92881678D01*
X150162217Y-92875093D01*
X150124814Y-92858909D01*
X150070675Y-92831222D01*
X149996079Y-92790133D01*
X149897312Y-92733732D01*
X149770651Y-92660115D01*
X149766846Y-92657894D01*
X149649613Y-92588713D01*
X149537005Y-92520995D01*
X149434949Y-92458401D01*
X149349372Y-92404590D01*
X149286200Y-92363225D01*
X149260230Y-92344946D01*
X149168109Y-92274545D01*
X149104467Y-92221213D01*
X149066763Y-92181763D01*
X149052451Y-92152999D01*
X149058996Y-92131731D01*
X149078913Y-92117237D01*
X149094610Y-92114884D01*
X149118818Y-92123697D01*
G37*
G36*
X148737863Y-91751272D02*
G01*
X148787450Y-91793901D01*
X148803857Y-91812630D01*
X148837594Y-91851820D01*
X148859987Y-91875015D01*
X148864675Y-91877956D01*
X148905744Y-91852398D01*
X148945577Y-91840777D01*
X148962432Y-91843261D01*
X148971514Y-91865725D01*
X148979765Y-91917135D01*
X148986175Y-91989391D01*
X148989351Y-92058651D01*
X148990598Y-92157453D01*
X148986867Y-92230429D01*
X148976672Y-92288648D01*
X148958531Y-92343174D01*
X148947811Y-92368483D01*
X148923015Y-92428882D01*
X148906217Y-92478289D01*
X148901380Y-92502485D01*
X148915784Y-92529040D01*
X148951292Y-92564805D01*
X148972331Y-92581565D01*
X149013901Y-92614995D01*
X149028877Y-92637805D01*
X149022159Y-92658888D01*
X149018040Y-92664454D01*
X148985318Y-92679830D01*
X148939332Y-92670519D01*
X148889434Y-92641178D01*
X148844979Y-92596473D01*
X148827545Y-92569506D01*
X148814220Y-92541175D01*
X148808192Y-92513110D01*
X148810695Y-92478344D01*
X148822962Y-92429904D01*
X148846224Y-92360821D01*
X148881378Y-92265031D01*
X148893762Y-92210492D01*
X148898682Y-92144649D01*
X148898423Y-92130716D01*
X148890262Y-92074634D01*
X148866165Y-92026735D01*
X148821449Y-91974816D01*
X148745819Y-91892101D01*
X148694735Y-91825916D01*
X148669804Y-91778580D01*
X148669725Y-91755917D01*
X148697259Y-91738035D01*
X148737863Y-91751272D01*
G37*
G36*
X148835174Y-89557286D02*
G01*
X148851583Y-89589636D01*
X148852036Y-89652956D01*
X148843608Y-89713658D01*
X148825014Y-89850097D01*
X148812036Y-90006282D01*
X148805731Y-90165186D01*
X148806933Y-90304363D01*
X148810998Y-90376420D01*
X148818341Y-90420697D01*
X148832288Y-90446469D01*
X148856166Y-90463016D01*
X148865428Y-90467415D01*
X148903492Y-90479018D01*
X148923921Y-90474480D01*
X148924330Y-90473522D01*
X148929978Y-90449293D01*
X148941054Y-90396351D01*
X148955986Y-90322368D01*
X148973203Y-90235017D01*
X148974173Y-90230043D01*
X148997507Y-90120474D01*
X149025775Y-90002986D01*
X149054890Y-89893954D01*
X149073964Y-89830253D01*
X149100421Y-89749707D01*
X149119882Y-89697777D01*
X149135919Y-89667563D01*
X149152102Y-89652167D01*
X149169718Y-89645283D01*
X149197419Y-89642378D01*
X149211751Y-89655120D01*
X149212704Y-89688054D01*
X149200263Y-89745726D01*
X149174421Y-89832684D01*
X149169194Y-89849140D01*
X149144886Y-89931455D01*
X149119513Y-90027964D01*
X149094545Y-90131714D01*
X149071445Y-90235751D01*
X149051682Y-90333121D01*
X149036725Y-90416870D01*
X149028036Y-90480044D01*
X149027084Y-90515692D01*
X149027913Y-90518807D01*
X149046515Y-90545380D01*
X149082695Y-90585457D01*
X149106948Y-90609566D01*
X149166122Y-90677283D01*
X149195928Y-90743643D01*
X149201807Y-90817810D01*
X149207150Y-90858463D01*
X149232475Y-90894700D01*
X149270253Y-90927048D01*
X149306820Y-90959380D01*
X149362082Y-91013331D01*
X149430083Y-91082854D01*
X149504869Y-91161907D01*
X149553567Y-91214734D01*
X149765915Y-91447558D01*
X149939493Y-91406430D01*
X150213228Y-91352177D01*
X150474781Y-91321458D01*
X150718077Y-91314857D01*
X150830613Y-91320752D01*
X150964972Y-91338342D01*
X151065473Y-91366930D01*
X151133999Y-91407725D01*
X151172428Y-91461939D01*
X151182644Y-91530781D01*
X151181450Y-91546563D01*
X151175578Y-91577581D01*
X151162667Y-91616345D01*
X151140582Y-91667305D01*
X151107181Y-91734906D01*
X151060327Y-91823601D01*
X150997883Y-91937835D01*
X150964096Y-91998813D01*
X150905320Y-92105616D01*
X150853821Y-92201175D01*
X150811974Y-92280919D01*
X150782153Y-92340278D01*
X150766729Y-92374689D01*
X150765381Y-92381460D01*
X150782637Y-92394352D01*
X150824160Y-92426470D01*
X150885142Y-92474060D01*
X150960776Y-92533373D01*
X151040541Y-92596152D01*
X151164325Y-92695101D01*
X151260582Y-92775562D01*
X151332054Y-92840411D01*
X151381482Y-92892532D01*
X151411611Y-92934801D01*
X151425181Y-92970099D01*
X151425183Y-93000068D01*
X151395052Y-93069980D01*
X151337276Y-93117962D01*
X151254374Y-93143616D01*
X151148858Y-93146538D01*
X151023243Y-93126328D01*
X150888369Y-93085623D01*
X150811977Y-93060062D01*
X150756763Y-93048299D01*
X150710139Y-93048872D01*
X150662735Y-93059397D01*
X150570752Y-93070773D01*
X150511441Y-93058489D01*
X150433579Y-93029001D01*
X150381485Y-93014012D01*
X150346076Y-93015446D01*
X150318265Y-93035229D01*
X150288971Y-93075283D01*
X150266583Y-93110347D01*
X150230026Y-93170397D01*
X150211701Y-93210326D01*
X150208354Y-93240193D01*
X150215699Y-93267429D01*
X150249752Y-93315055D01*
X150305711Y-93356852D01*
X150348775Y-93383862D01*
X150364181Y-93403006D01*
X150357340Y-93423131D01*
X150351280Y-93431294D01*
X150317425Y-93448454D01*
X150270486Y-93440439D01*
X150218147Y-93412760D01*
X150168100Y-93370923D01*
X150128030Y-93320439D01*
X150105626Y-93266814D01*
X150103719Y-93253916D01*
X150106189Y-93225913D01*
X150118920Y-93187412D01*
X150143633Y-93135431D01*
X150182057Y-93066989D01*
X150235916Y-92979103D01*
X150290674Y-92894054D01*
X150415539Y-92894054D01*
X150428323Y-92919459D01*
X150466936Y-92944931D01*
X150520531Y-92965282D01*
X150578257Y-92975325D01*
X150586138Y-92975615D01*
X150605199Y-92973130D01*
X150600782Y-92962075D01*
X150569608Y-92938531D01*
X150537252Y-92917137D01*
X150478507Y-92880815D01*
X150443092Y-92865165D01*
X150424462Y-92868945D01*
X150416066Y-92890916D01*
X150415539Y-92894054D01*
X150290674Y-92894054D01*
X150306937Y-92868795D01*
X150339381Y-92819824D01*
X150371819Y-92770859D01*
X150519586Y-92770859D01*
X150521505Y-92780398D01*
X150545759Y-92803837D01*
X150597164Y-92836909D01*
X150668269Y-92876016D01*
X150751615Y-92917557D01*
X150839750Y-92957932D01*
X150925219Y-92993538D01*
X151000566Y-93020776D01*
X151045377Y-93033420D01*
X151133956Y-93047342D01*
X151213769Y-93048516D01*
X151277296Y-93037872D01*
X151317019Y-93016345D01*
X151326299Y-92998577D01*
X151317213Y-92966416D01*
X151288450Y-92924998D01*
X151277408Y-92913138D01*
X151241891Y-92880891D01*
X151183933Y-92831915D01*
X151110441Y-92771694D01*
X151028322Y-92705712D01*
X150944483Y-92639457D01*
X150865826Y-92578412D01*
X150799259Y-92528066D01*
X150751687Y-92493900D01*
X150740219Y-92486418D01*
X150692874Y-92457263D01*
X150600998Y-92605662D01*
X150554269Y-92684493D01*
X150527799Y-92738095D01*
X150519586Y-92770859D01*
X150371819Y-92770859D01*
X150396847Y-92733079D01*
X150457751Y-92642406D01*
X150464276Y-92632535D01*
X150538714Y-92519909D01*
X150623031Y-92388039D01*
X150707774Y-92251767D01*
X150790014Y-92116062D01*
X150866825Y-91985893D01*
X150935280Y-91866228D01*
X150992449Y-91762036D01*
X151035410Y-91678287D01*
X151061229Y-91619951D01*
X151062923Y-91615226D01*
X151077326Y-91558084D01*
X151080841Y-91509250D01*
X151079135Y-91498178D01*
X151069977Y-91476257D01*
X151050939Y-91461038D01*
X151013211Y-91448202D01*
X150947973Y-91433428D01*
X150946272Y-91433072D01*
X150824931Y-91415817D01*
X150686534Y-91409987D01*
X150535541Y-91414551D01*
X150376411Y-91428472D01*
X150213603Y-91450722D01*
X150051572Y-91480266D01*
X149894783Y-91516075D01*
X149747690Y-91557113D01*
X149614755Y-91602350D01*
X149500435Y-91650753D01*
X149409189Y-91701290D01*
X149345479Y-91752929D01*
X149313759Y-91804635D01*
X149312206Y-91811378D01*
X149314490Y-91891637D01*
X149349813Y-91962144D01*
X149414668Y-92019235D01*
X149505546Y-92059250D01*
X149562077Y-92072119D01*
X149644745Y-92080016D01*
X149729847Y-92075169D01*
X149821410Y-92056053D01*
X149923462Y-92021139D01*
X150040035Y-91968902D01*
X150175155Y-91897817D01*
X150332852Y-91806357D01*
X150446182Y-91737233D01*
X150588534Y-91651037D01*
X150703594Y-91585684D01*
X150793796Y-91539906D01*
X150861580Y-91512430D01*
X150894627Y-91503811D01*
X150955146Y-91497862D01*
X150992449Y-91509941D01*
X151017793Y-91544483D01*
X151022242Y-91554083D01*
X151030797Y-91586500D01*
X151013027Y-91603678D01*
X151003578Y-91607484D01*
X150961250Y-91611670D01*
X150940158Y-91605272D01*
X150906098Y-91601660D01*
X150858564Y-91613480D01*
X150852282Y-91616075D01*
X150809274Y-91637501D01*
X150746657Y-91672104D01*
X150671053Y-91715847D01*
X150589085Y-91764694D01*
X150507375Y-91814608D01*
X150432548Y-91861550D01*
X150371223Y-91901489D01*
X150330027Y-91930384D01*
X150315918Y-91942994D01*
X150311454Y-91953327D01*
X150313586Y-91965093D01*
X150326360Y-91982771D01*
X150353816Y-92010845D01*
X150399995Y-92053794D01*
X150468943Y-92116103D01*
X150485488Y-92130981D01*
X150543811Y-92185001D01*
X150578004Y-92221969D01*
X150592644Y-92248252D01*
X150592312Y-92270221D01*
X150590145Y-92276503D01*
X150576623Y-92295719D01*
X150554757Y-92298202D01*
X150520624Y-92281750D01*
X150470306Y-92244153D01*
X150399882Y-92183204D01*
X150359767Y-92146822D01*
X150301475Y-92094361D01*
X150251473Y-92050980D01*
X150217441Y-92023272D01*
X150209363Y-92017664D01*
X150180927Y-92018406D01*
X150132517Y-92035028D01*
X150085071Y-92058367D01*
X150011886Y-92093164D01*
X149924198Y-92126558D01*
X149859091Y-92146335D01*
X149797106Y-92163360D01*
X149752539Y-92177550D01*
X149734278Y-92186054D01*
X149734228Y-92186442D01*
X149749444Y-92200922D01*
X149790910Y-92235196D01*
X149855357Y-92286675D01*
X149939500Y-92352770D01*
X150040071Y-92430890D01*
X150153791Y-92518448D01*
X150169335Y-92530362D01*
X150246099Y-92591128D01*
X150294993Y-92635563D01*
X150319110Y-92667684D01*
X150321542Y-92691510D01*
X150307255Y-92709590D01*
X150294390Y-92714740D01*
X150274960Y-92711615D01*
X150245875Y-92698126D01*
X150204044Y-92672191D01*
X150146380Y-92631721D01*
X150069796Y-92574633D01*
X149971196Y-92498838D01*
X149847502Y-92402254D01*
X149819205Y-92380042D01*
X149716070Y-92300008D01*
X149637057Y-92241138D01*
X149578026Y-92200631D01*
X149534845Y-92175682D01*
X149503375Y-92163488D01*
X149498270Y-92162359D01*
X149390511Y-92124433D01*
X149304393Y-92057163D01*
X149242693Y-91963092D01*
X149222723Y-91909694D01*
X149196261Y-91847918D01*
X149150144Y-91780113D01*
X149079140Y-91698606D01*
X149077931Y-91697315D01*
X149008417Y-91620010D01*
X148933708Y-91531837D01*
X148868258Y-91449932D01*
X148859226Y-91438041D01*
X148812555Y-91379208D01*
X148772092Y-91333991D01*
X148744101Y-91309164D01*
X148737321Y-91306443D01*
X148709535Y-91323630D01*
X148681860Y-91365917D01*
X148659757Y-91421746D01*
X148648683Y-91479551D01*
X148648312Y-91494932D01*
X148653240Y-91542649D01*
X148672210Y-91568947D01*
X148713790Y-91588460D01*
X148754355Y-91606077D01*
X148765478Y-91621434D01*
X148753043Y-91643452D01*
X148751400Y-91645525D01*
X148730551Y-91660825D01*
X148695045Y-91666894D01*
X148637506Y-91664061D01*
X148559832Y-91654030D01*
X148482241Y-91644150D01*
X148416044Y-91638525D01*
X148371640Y-91637928D01*
X148362018Y-91639353D01*
X148338031Y-91655907D01*
X148294706Y-91694623D01*
X148237605Y-91750215D01*
X148172285Y-91817406D01*
X148152238Y-91838692D01*
X148063902Y-91930245D01*
X147996499Y-91993376D01*
X147948691Y-92029276D01*
X147927217Y-92038630D01*
X147876571Y-92037316D01*
X147816109Y-92019265D01*
X147757762Y-91990271D01*
X147713461Y-91956127D01*
X147695509Y-91926094D01*
X147697847Y-91892983D01*
X147722129Y-91882329D01*
X147771480Y-91893776D01*
X147816989Y-91912235D01*
X147867678Y-91932937D01*
X147903780Y-91944470D01*
X147912820Y-91945391D01*
X147929681Y-91931239D01*
X147966490Y-91895025D01*
X148018110Y-91841958D01*
X148079403Y-91777240D01*
X148090587Y-91765270D01*
X148173158Y-91677958D01*
X148236728Y-91615066D01*
X148286700Y-91573137D01*
X148328478Y-91548712D01*
X148367466Y-91538334D01*
X148409074Y-91538547D01*
X148438766Y-91542512D01*
X148491530Y-91548896D01*
X148526518Y-91549230D01*
X148533844Y-91546628D01*
X148542461Y-91518410D01*
X148550472Y-91472016D01*
X148556276Y-91421267D01*
X148558276Y-91379985D01*
X148555203Y-91362131D01*
X148531156Y-91362588D01*
X148493455Y-91372219D01*
X148431593Y-91382464D01*
X148366190Y-91378126D01*
X148312461Y-91361177D01*
X148292464Y-91346143D01*
X148256734Y-91277651D01*
X148242847Y-91193023D01*
X148331422Y-91193023D01*
X148337138Y-91229955D01*
X148349841Y-91268763D01*
X148373971Y-91283535D01*
X148403517Y-91286355D01*
X148462977Y-91282192D01*
X148514237Y-91270986D01*
X148615447Y-91229604D01*
X148840882Y-91229604D01*
X148849242Y-91259745D01*
X148877931Y-91306434D01*
X148909732Y-91351456D01*
X148948709Y-91402376D01*
X148999992Y-91464948D01*
X149057263Y-91531983D01*
X149114209Y-91596305D01*
X149164507Y-91650728D01*
X149201850Y-91688075D01*
X149215960Y-91699654D01*
X149244975Y-91697456D01*
X149290716Y-91670106D01*
X149311171Y-91653700D01*
X149365869Y-91614854D01*
X149439026Y-91572833D01*
X149510358Y-91538728D01*
X149572784Y-91511315D01*
X149620331Y-91488587D01*
X149643980Y-91474891D01*
X149644920Y-91473865D01*
X149635717Y-91456987D01*
X149605852Y-91418805D01*
X149560243Y-91364823D01*
X149503807Y-91300543D01*
X149441459Y-91231470D01*
X149378117Y-91163103D01*
X149318702Y-91100951D01*
X149268126Y-91050516D01*
X149258504Y-91041380D01*
X149198109Y-90990950D01*
X149154284Y-90970158D01*
X149123066Y-90977794D01*
X149108668Y-90995645D01*
X149081932Y-91027333D01*
X149034488Y-91071531D01*
X148976250Y-91119889D01*
X148917140Y-91164056D01*
X148879524Y-91188619D01*
X148851446Y-91208425D01*
X148840882Y-91229604D01*
X148615447Y-91229604D01*
X148618844Y-91228215D01*
X148736034Y-91164719D01*
X148754741Y-91152592D01*
X148854382Y-91087995D01*
X148962461Y-91005539D01*
X149048843Y-90924850D01*
X149059174Y-90913419D01*
X149097570Y-90846027D01*
X149101483Y-90775180D01*
X149072420Y-90706243D01*
X149011882Y-90644576D01*
X148977386Y-90622107D01*
X148911942Y-90589180D01*
X148867628Y-90580054D01*
X148837218Y-90594677D01*
X148819270Y-90621034D01*
X148789516Y-90659316D01*
X148761921Y-90662062D01*
X148741504Y-90629756D01*
X148737496Y-90613112D01*
X148714749Y-90561605D01*
X148670654Y-90539872D01*
X148607620Y-90546410D01*
X148574774Y-90557883D01*
X148548144Y-90576780D01*
X148520789Y-90610583D01*
X148485769Y-90666771D01*
X148468628Y-90696203D01*
X148404355Y-90826142D01*
X148358679Y-90957874D01*
X148333676Y-91082977D01*
X148331422Y-91193023D01*
X148242847Y-91193023D01*
X148240689Y-91179870D01*
X148244671Y-91055115D01*
X148246779Y-91036185D01*
X148255356Y-90971359D01*
X148265591Y-90919783D01*
X148281058Y-90872089D01*
X148305341Y-90818906D01*
X148342012Y-90750867D01*
X148383642Y-90677757D01*
X148396849Y-90654760D01*
X148502302Y-90471138D01*
X148607044Y-90449614D01*
X148660676Y-90437657D01*
X148693562Y-90423309D01*
X148709989Y-90398515D01*
X148714244Y-90355215D01*
X148710617Y-90285356D01*
X148708681Y-90258664D01*
X148707378Y-90187546D01*
X148710852Y-90090884D01*
X148718254Y-89979763D01*
X148728723Y-89865266D01*
X148741408Y-89758474D01*
X148753001Y-89683657D01*
X148769051Y-89610048D01*
X148785676Y-89568423D01*
X148802376Y-89554226D01*
X148835174Y-89557286D01*
G37*
G36*
X141418818Y-95223697D02*
G01*
X141456704Y-95246800D01*
X141513433Y-95287304D01*
X141586386Y-95342370D01*
X141706430Y-95428333D01*
X141858850Y-95527401D01*
X142044375Y-95640036D01*
X142150551Y-95702033D01*
X142278823Y-95776564D01*
X142377464Y-95835335D01*
X142449248Y-95880549D01*
X142496949Y-95914404D01*
X142523346Y-95939102D01*
X142531212Y-95956847D01*
X142523325Y-95969840D01*
X142502458Y-95980282D01*
X142501683Y-95980571D01*
X142486599Y-95981678D01*
X142462217Y-95975093D01*
X142424814Y-95958909D01*
X142370675Y-95931222D01*
X142296079Y-95890133D01*
X142197312Y-95833732D01*
X142070651Y-95760115D01*
X142066846Y-95757894D01*
X141949613Y-95688713D01*
X141837005Y-95620995D01*
X141734949Y-95558401D01*
X141649372Y-95504590D01*
X141586200Y-95463225D01*
X141560230Y-95444946D01*
X141468109Y-95374545D01*
X141404467Y-95321213D01*
X141366763Y-95281763D01*
X141352451Y-95252999D01*
X141358996Y-95231731D01*
X141378913Y-95217237D01*
X141394610Y-95214884D01*
X141418818Y-95223697D01*
G37*
G36*
X141037863Y-94851272D02*
G01*
X141087450Y-94893901D01*
X141103857Y-94912630D01*
X141137594Y-94951820D01*
X141159987Y-94975015D01*
X141164675Y-94977956D01*
X141205744Y-94952398D01*
X141245577Y-94940777D01*
X141262432Y-94943261D01*
X141271514Y-94965725D01*
X141279765Y-95017135D01*
X141286175Y-95089391D01*
X141289351Y-95158651D01*
X141290598Y-95257453D01*
X141286867Y-95330429D01*
X141276672Y-95388648D01*
X141258531Y-95443174D01*
X141247811Y-95468483D01*
X141223015Y-95528882D01*
X141206217Y-95578289D01*
X141201380Y-95602485D01*
X141215784Y-95629040D01*
X141251292Y-95664805D01*
X141272331Y-95681565D01*
X141313901Y-95714995D01*
X141328877Y-95737805D01*
X141322159Y-95758888D01*
X141318040Y-95764454D01*
X141285318Y-95779830D01*
X141239332Y-95770519D01*
X141189434Y-95741178D01*
X141144979Y-95696473D01*
X141127545Y-95669506D01*
X141114220Y-95641175D01*
X141108192Y-95613110D01*
X141110695Y-95578344D01*
X141122962Y-95529904D01*
X141146224Y-95460821D01*
X141181378Y-95365031D01*
X141193762Y-95310492D01*
X141198682Y-95244649D01*
X141198423Y-95230716D01*
X141190262Y-95174634D01*
X141166165Y-95126735D01*
X141121449Y-95074816D01*
X141045819Y-94992101D01*
X140994735Y-94925916D01*
X140969804Y-94878580D01*
X140969725Y-94855917D01*
X140997259Y-94838035D01*
X141037863Y-94851272D01*
G37*
G36*
X141135174Y-92657286D02*
G01*
X141151583Y-92689636D01*
X141152036Y-92752956D01*
X141143608Y-92813658D01*
X141125014Y-92950097D01*
X141112036Y-93106282D01*
X141105731Y-93265186D01*
X141106933Y-93404363D01*
X141110998Y-93476420D01*
X141118341Y-93520697D01*
X141132288Y-93546469D01*
X141156166Y-93563016D01*
X141165428Y-93567415D01*
X141203492Y-93579018D01*
X141223921Y-93574480D01*
X141224330Y-93573522D01*
X141229978Y-93549293D01*
X141241054Y-93496351D01*
X141255986Y-93422368D01*
X141273203Y-93335017D01*
X141274173Y-93330043D01*
X141297507Y-93220474D01*
X141325775Y-93102986D01*
X141354890Y-92993954D01*
X141373964Y-92930253D01*
X141400421Y-92849707D01*
X141419882Y-92797777D01*
X141435919Y-92767563D01*
X141452102Y-92752167D01*
X141469718Y-92745283D01*
X141497419Y-92742378D01*
X141511751Y-92755120D01*
X141512704Y-92788054D01*
X141500263Y-92845726D01*
X141474421Y-92932684D01*
X141469194Y-92949140D01*
X141444886Y-93031455D01*
X141419513Y-93127964D01*
X141394545Y-93231714D01*
X141371445Y-93335751D01*
X141351682Y-93433121D01*
X141336725Y-93516870D01*
X141328036Y-93580044D01*
X141327084Y-93615692D01*
X141327913Y-93618807D01*
X141346515Y-93645380D01*
X141382695Y-93685457D01*
X141406948Y-93709566D01*
X141466122Y-93777283D01*
X141495928Y-93843643D01*
X141501807Y-93917810D01*
X141507150Y-93958463D01*
X141532475Y-93994700D01*
X141570253Y-94027048D01*
X141606820Y-94059380D01*
X141662082Y-94113331D01*
X141730083Y-94182854D01*
X141804869Y-94261907D01*
X141853567Y-94314734D01*
X142065915Y-94547558D01*
X142239493Y-94506430D01*
X142513228Y-94452177D01*
X142774781Y-94421458D01*
X143018077Y-94414857D01*
X143130613Y-94420752D01*
X143264972Y-94438342D01*
X143365473Y-94466930D01*
X143433999Y-94507725D01*
X143472428Y-94561939D01*
X143482644Y-94630781D01*
X143481450Y-94646563D01*
X143475578Y-94677581D01*
X143462667Y-94716345D01*
X143440582Y-94767305D01*
X143407181Y-94834906D01*
X143360327Y-94923601D01*
X143297883Y-95037835D01*
X143264096Y-95098813D01*
X143205320Y-95205616D01*
X143153821Y-95301175D01*
X143111974Y-95380919D01*
X143082153Y-95440278D01*
X143066729Y-95474689D01*
X143065381Y-95481460D01*
X143082637Y-95494352D01*
X143124160Y-95526470D01*
X143185142Y-95574060D01*
X143260776Y-95633373D01*
X143340541Y-95696152D01*
X143464325Y-95795101D01*
X143560582Y-95875562D01*
X143632054Y-95940411D01*
X143681482Y-95992532D01*
X143711611Y-96034801D01*
X143725181Y-96070099D01*
X143725183Y-96100068D01*
X143695052Y-96169980D01*
X143637276Y-96217962D01*
X143554374Y-96243616D01*
X143448858Y-96246538D01*
X143323243Y-96226328D01*
X143188369Y-96185623D01*
X143111977Y-96160062D01*
X143056763Y-96148299D01*
X143010139Y-96148872D01*
X142962735Y-96159397D01*
X142870752Y-96170773D01*
X142811441Y-96158489D01*
X142733579Y-96129001D01*
X142681485Y-96114012D01*
X142646076Y-96115446D01*
X142618265Y-96135229D01*
X142588971Y-96175283D01*
X142566583Y-96210347D01*
X142530026Y-96270397D01*
X142511701Y-96310326D01*
X142508354Y-96340193D01*
X142515699Y-96367429D01*
X142549752Y-96415055D01*
X142605711Y-96456852D01*
X142648775Y-96483862D01*
X142664181Y-96503006D01*
X142657340Y-96523131D01*
X142651280Y-96531294D01*
X142617425Y-96548454D01*
X142570486Y-96540439D01*
X142518147Y-96512760D01*
X142468100Y-96470923D01*
X142428030Y-96420439D01*
X142405626Y-96366814D01*
X142403719Y-96353916D01*
X142406189Y-96325913D01*
X142418920Y-96287412D01*
X142443633Y-96235431D01*
X142482057Y-96166989D01*
X142535916Y-96079103D01*
X142590674Y-95994054D01*
X142715539Y-95994054D01*
X142728323Y-96019459D01*
X142766936Y-96044931D01*
X142820531Y-96065282D01*
X142878257Y-96075325D01*
X142886138Y-96075615D01*
X142905199Y-96073130D01*
X142900782Y-96062075D01*
X142869608Y-96038531D01*
X142837252Y-96017137D01*
X142778507Y-95980815D01*
X142743092Y-95965165D01*
X142724462Y-95968945D01*
X142716066Y-95990916D01*
X142715539Y-95994054D01*
X142590674Y-95994054D01*
X142606937Y-95968795D01*
X142639381Y-95919824D01*
X142671819Y-95870859D01*
X142819586Y-95870859D01*
X142821505Y-95880398D01*
X142845759Y-95903837D01*
X142897164Y-95936909D01*
X142968269Y-95976016D01*
X143051615Y-96017557D01*
X143139750Y-96057932D01*
X143225219Y-96093538D01*
X143300566Y-96120776D01*
X143345377Y-96133420D01*
X143433956Y-96147342D01*
X143513769Y-96148516D01*
X143577296Y-96137872D01*
X143617019Y-96116345D01*
X143626299Y-96098577D01*
X143617213Y-96066416D01*
X143588450Y-96024998D01*
X143577408Y-96013138D01*
X143541891Y-95980891D01*
X143483933Y-95931915D01*
X143410441Y-95871694D01*
X143328322Y-95805712D01*
X143244483Y-95739457D01*
X143165826Y-95678412D01*
X143099259Y-95628066D01*
X143051687Y-95593900D01*
X143040219Y-95586418D01*
X142992874Y-95557263D01*
X142900998Y-95705662D01*
X142854269Y-95784493D01*
X142827799Y-95838095D01*
X142819586Y-95870859D01*
X142671819Y-95870859D01*
X142696847Y-95833079D01*
X142757751Y-95742406D01*
X142764276Y-95732535D01*
X142838714Y-95619909D01*
X142923031Y-95488039D01*
X143007774Y-95351767D01*
X143090014Y-95216062D01*
X143166825Y-95085893D01*
X143235280Y-94966228D01*
X143292449Y-94862036D01*
X143335410Y-94778287D01*
X143361229Y-94719951D01*
X143362923Y-94715226D01*
X143377326Y-94658084D01*
X143380841Y-94609250D01*
X143379135Y-94598178D01*
X143369977Y-94576257D01*
X143350939Y-94561038D01*
X143313211Y-94548202D01*
X143247973Y-94533428D01*
X143246272Y-94533072D01*
X143124931Y-94515817D01*
X142986534Y-94509987D01*
X142835541Y-94514551D01*
X142676411Y-94528472D01*
X142513603Y-94550722D01*
X142351572Y-94580266D01*
X142194783Y-94616075D01*
X142047690Y-94657113D01*
X141914755Y-94702350D01*
X141800435Y-94750753D01*
X141709189Y-94801290D01*
X141645479Y-94852929D01*
X141613759Y-94904635D01*
X141612206Y-94911378D01*
X141614490Y-94991637D01*
X141649813Y-95062144D01*
X141714668Y-95119235D01*
X141805546Y-95159250D01*
X141862077Y-95172119D01*
X141944745Y-95180016D01*
X142029847Y-95175169D01*
X142121410Y-95156053D01*
X142223462Y-95121139D01*
X142340035Y-95068902D01*
X142475155Y-94997817D01*
X142632852Y-94906357D01*
X142746182Y-94837233D01*
X142888534Y-94751037D01*
X143003594Y-94685684D01*
X143093796Y-94639906D01*
X143161580Y-94612430D01*
X143194627Y-94603811D01*
X143255146Y-94597862D01*
X143292449Y-94609941D01*
X143317793Y-94644483D01*
X143322242Y-94654083D01*
X143330797Y-94686500D01*
X143313027Y-94703678D01*
X143303578Y-94707484D01*
X143261250Y-94711670D01*
X143240158Y-94705272D01*
X143206098Y-94701660D01*
X143158564Y-94713480D01*
X143152282Y-94716075D01*
X143109274Y-94737501D01*
X143046657Y-94772104D01*
X142971053Y-94815847D01*
X142889085Y-94864694D01*
X142807375Y-94914608D01*
X142732548Y-94961550D01*
X142671223Y-95001489D01*
X142630027Y-95030384D01*
X142615918Y-95042994D01*
X142611454Y-95053327D01*
X142613586Y-95065093D01*
X142626360Y-95082771D01*
X142653816Y-95110845D01*
X142699995Y-95153794D01*
X142768943Y-95216103D01*
X142785488Y-95230981D01*
X142843811Y-95285001D01*
X142878004Y-95321969D01*
X142892644Y-95348252D01*
X142892312Y-95370221D01*
X142890145Y-95376503D01*
X142876623Y-95395719D01*
X142854757Y-95398202D01*
X142820624Y-95381750D01*
X142770306Y-95344153D01*
X142699882Y-95283204D01*
X142659767Y-95246822D01*
X142601475Y-95194361D01*
X142551473Y-95150980D01*
X142517441Y-95123272D01*
X142509363Y-95117664D01*
X142480927Y-95118406D01*
X142432517Y-95135028D01*
X142385071Y-95158367D01*
X142311886Y-95193164D01*
X142224198Y-95226558D01*
X142159091Y-95246335D01*
X142097106Y-95263360D01*
X142052539Y-95277550D01*
X142034278Y-95286054D01*
X142034228Y-95286442D01*
X142049444Y-95300922D01*
X142090910Y-95335196D01*
X142155357Y-95386675D01*
X142239500Y-95452770D01*
X142340071Y-95530890D01*
X142453791Y-95618448D01*
X142469335Y-95630362D01*
X142546099Y-95691128D01*
X142594993Y-95735563D01*
X142619110Y-95767684D01*
X142621542Y-95791510D01*
X142607255Y-95809590D01*
X142594390Y-95814740D01*
X142574960Y-95811615D01*
X142545875Y-95798126D01*
X142504044Y-95772191D01*
X142446380Y-95731721D01*
X142369796Y-95674633D01*
X142271196Y-95598838D01*
X142147502Y-95502254D01*
X142119205Y-95480042D01*
X142016070Y-95400008D01*
X141937057Y-95341138D01*
X141878026Y-95300631D01*
X141834845Y-95275682D01*
X141803375Y-95263488D01*
X141798270Y-95262359D01*
X141690511Y-95224433D01*
X141604393Y-95157163D01*
X141542693Y-95063092D01*
X141522723Y-95009694D01*
X141496261Y-94947918D01*
X141450144Y-94880113D01*
X141379140Y-94798606D01*
X141377931Y-94797315D01*
X141308417Y-94720010D01*
X141233708Y-94631837D01*
X141168258Y-94549932D01*
X141159226Y-94538041D01*
X141112555Y-94479208D01*
X141072092Y-94433991D01*
X141044101Y-94409164D01*
X141037321Y-94406443D01*
X141009535Y-94423630D01*
X140981860Y-94465917D01*
X140959757Y-94521746D01*
X140948683Y-94579551D01*
X140948312Y-94594932D01*
X140953240Y-94642649D01*
X140972210Y-94668947D01*
X141013790Y-94688460D01*
X141054355Y-94706077D01*
X141065478Y-94721434D01*
X141053043Y-94743452D01*
X141051400Y-94745525D01*
X141030551Y-94760825D01*
X140995045Y-94766894D01*
X140937506Y-94764061D01*
X140859832Y-94754030D01*
X140782241Y-94744150D01*
X140716044Y-94738525D01*
X140671640Y-94737928D01*
X140662018Y-94739353D01*
X140638031Y-94755907D01*
X140594706Y-94794623D01*
X140537605Y-94850215D01*
X140472285Y-94917406D01*
X140452238Y-94938692D01*
X140363902Y-95030245D01*
X140296499Y-95093376D01*
X140248691Y-95129276D01*
X140227217Y-95138630D01*
X140176571Y-95137316D01*
X140116109Y-95119265D01*
X140057762Y-95090271D01*
X140013461Y-95056127D01*
X139995509Y-95026094D01*
X139997847Y-94992983D01*
X140022129Y-94982329D01*
X140071480Y-94993776D01*
X140116989Y-95012235D01*
X140167678Y-95032937D01*
X140203780Y-95044470D01*
X140212820Y-95045391D01*
X140229681Y-95031239D01*
X140266490Y-94995025D01*
X140318110Y-94941958D01*
X140379403Y-94877240D01*
X140390587Y-94865270D01*
X140473158Y-94777958D01*
X140536728Y-94715066D01*
X140586700Y-94673137D01*
X140628478Y-94648712D01*
X140667466Y-94638334D01*
X140709074Y-94638547D01*
X140738766Y-94642512D01*
X140791530Y-94648896D01*
X140826518Y-94649230D01*
X140833844Y-94646628D01*
X140842461Y-94618410D01*
X140850472Y-94572016D01*
X140856276Y-94521267D01*
X140858276Y-94479985D01*
X140855203Y-94462131D01*
X140831156Y-94462588D01*
X140793455Y-94472219D01*
X140731593Y-94482464D01*
X140666190Y-94478126D01*
X140612461Y-94461177D01*
X140592464Y-94446143D01*
X140556734Y-94377651D01*
X140542847Y-94293023D01*
X140631422Y-94293023D01*
X140637138Y-94329955D01*
X140649841Y-94368763D01*
X140673971Y-94383535D01*
X140703517Y-94386355D01*
X140762977Y-94382192D01*
X140814237Y-94370986D01*
X140915447Y-94329604D01*
X141140882Y-94329604D01*
X141149242Y-94359745D01*
X141177931Y-94406434D01*
X141209732Y-94451456D01*
X141248709Y-94502376D01*
X141299992Y-94564948D01*
X141357263Y-94631983D01*
X141414209Y-94696305D01*
X141464507Y-94750728D01*
X141501850Y-94788075D01*
X141515960Y-94799654D01*
X141544975Y-94797456D01*
X141590716Y-94770106D01*
X141611171Y-94753700D01*
X141665869Y-94714854D01*
X141739026Y-94672833D01*
X141810358Y-94638728D01*
X141872784Y-94611315D01*
X141920331Y-94588587D01*
X141943980Y-94574891D01*
X141944920Y-94573865D01*
X141935717Y-94556987D01*
X141905852Y-94518805D01*
X141860243Y-94464823D01*
X141803807Y-94400543D01*
X141741459Y-94331470D01*
X141678117Y-94263103D01*
X141618702Y-94200951D01*
X141568126Y-94150516D01*
X141558504Y-94141380D01*
X141498109Y-94090950D01*
X141454284Y-94070158D01*
X141423066Y-94077794D01*
X141408668Y-94095645D01*
X141381932Y-94127333D01*
X141334488Y-94171531D01*
X141276250Y-94219889D01*
X141217140Y-94264056D01*
X141179524Y-94288619D01*
X141151446Y-94308425D01*
X141140882Y-94329604D01*
X140915447Y-94329604D01*
X140918844Y-94328215D01*
X141036034Y-94264719D01*
X141054741Y-94252592D01*
X141154382Y-94187995D01*
X141262461Y-94105539D01*
X141348843Y-94024850D01*
X141359174Y-94013419D01*
X141397570Y-93946027D01*
X141401483Y-93875180D01*
X141372420Y-93806243D01*
X141311882Y-93744576D01*
X141277386Y-93722107D01*
X141211942Y-93689180D01*
X141167628Y-93680054D01*
X141137218Y-93694677D01*
X141119270Y-93721034D01*
X141089516Y-93759316D01*
X141061921Y-93762062D01*
X141041504Y-93729756D01*
X141037496Y-93713112D01*
X141014749Y-93661605D01*
X140970654Y-93639872D01*
X140907620Y-93646410D01*
X140874774Y-93657883D01*
X140848144Y-93676780D01*
X140820789Y-93710583D01*
X140785769Y-93766771D01*
X140768628Y-93796203D01*
X140704355Y-93926142D01*
X140658679Y-94057874D01*
X140633676Y-94182977D01*
X140631422Y-94293023D01*
X140542847Y-94293023D01*
X140540689Y-94279870D01*
X140544671Y-94155115D01*
X140546779Y-94136185D01*
X140555356Y-94071359D01*
X140565591Y-94019783D01*
X140581058Y-93972089D01*
X140605341Y-93918906D01*
X140642012Y-93850867D01*
X140683642Y-93777757D01*
X140696849Y-93754760D01*
X140802302Y-93571138D01*
X140907044Y-93549614D01*
X140960676Y-93537657D01*
X140993562Y-93523309D01*
X141009989Y-93498515D01*
X141014244Y-93455215D01*
X141010617Y-93385356D01*
X141008681Y-93358664D01*
X141007378Y-93287546D01*
X141010852Y-93190884D01*
X141018254Y-93079763D01*
X141028723Y-92965266D01*
X141041408Y-92858474D01*
X141053001Y-92783657D01*
X141069051Y-92710048D01*
X141085676Y-92668423D01*
X141102376Y-92654226D01*
X141135174Y-92657286D01*
G37*
G36*
X158335175Y-92357286D02*
G01*
X158351583Y-92389636D01*
X158352036Y-92452956D01*
X158343608Y-92513658D01*
X158325014Y-92650097D01*
X158312036Y-92806282D01*
X158305731Y-92965186D01*
X158306933Y-93104363D01*
X158310999Y-93176420D01*
X158318341Y-93220697D01*
X158332288Y-93246469D01*
X158356166Y-93263015D01*
X158365428Y-93267415D01*
X158403492Y-93279019D01*
X158423921Y-93274480D01*
X158424330Y-93273522D01*
X158429978Y-93249293D01*
X158441054Y-93196351D01*
X158455986Y-93122368D01*
X158473203Y-93035017D01*
X158474173Y-93030043D01*
X158497507Y-92920474D01*
X158525775Y-92802986D01*
X158554890Y-92693954D01*
X158573964Y-92630253D01*
X158600421Y-92549707D01*
X158619883Y-92497777D01*
X158635919Y-92467563D01*
X158652102Y-92452167D01*
X158669718Y-92445283D01*
X158697419Y-92442378D01*
X158711751Y-92455120D01*
X158712704Y-92488054D01*
X158700263Y-92545726D01*
X158674421Y-92632683D01*
X158669194Y-92649140D01*
X158644886Y-92731455D01*
X158619513Y-92827964D01*
X158594544Y-92931714D01*
X158571445Y-93035751D01*
X158551683Y-93133121D01*
X158536725Y-93216870D01*
X158528036Y-93280044D01*
X158527085Y-93315692D01*
X158527913Y-93318807D01*
X158546515Y-93345380D01*
X158582695Y-93385457D01*
X158606948Y-93409566D01*
X158666122Y-93477283D01*
X158695928Y-93543643D01*
X158701807Y-93617810D01*
X158707150Y-93658463D01*
X158732475Y-93694700D01*
X158770253Y-93727048D01*
X158806820Y-93759380D01*
X158862082Y-93813331D01*
X158930083Y-93882854D01*
X159004869Y-93961907D01*
X159053567Y-94014734D01*
X159265915Y-94247558D01*
X159439493Y-94206430D01*
X159713228Y-94152177D01*
X159974781Y-94121458D01*
X160218077Y-94114857D01*
X160330613Y-94120752D01*
X160464972Y-94138342D01*
X160565473Y-94166930D01*
X160633999Y-94207725D01*
X160672428Y-94261939D01*
X160682644Y-94330781D01*
X160681450Y-94346563D01*
X160675578Y-94377581D01*
X160662667Y-94416345D01*
X160640582Y-94467305D01*
X160607180Y-94534906D01*
X160560327Y-94623601D01*
X160497883Y-94737835D01*
X160464096Y-94798813D01*
X160405320Y-94905616D01*
X160353821Y-95001175D01*
X160311974Y-95080919D01*
X160282153Y-95140279D01*
X160266729Y-95174689D01*
X160265381Y-95181460D01*
X160282637Y-95194352D01*
X160324160Y-95226470D01*
X160385142Y-95274060D01*
X160460776Y-95333373D01*
X160540540Y-95396152D01*
X160664325Y-95495101D01*
X160760582Y-95575562D01*
X160832054Y-95640411D01*
X160881482Y-95692532D01*
X160911611Y-95734800D01*
X160925181Y-95770099D01*
X160925183Y-95800067D01*
X160895052Y-95869979D01*
X160837277Y-95917962D01*
X160754374Y-95943616D01*
X160648858Y-95946538D01*
X160523243Y-95926328D01*
X160388369Y-95885623D01*
X160311977Y-95860062D01*
X160256763Y-95848299D01*
X160210139Y-95848872D01*
X160162734Y-95859397D01*
X160070752Y-95870773D01*
X160011441Y-95858490D01*
X159933579Y-95829001D01*
X159881485Y-95814012D01*
X159846076Y-95815446D01*
X159818265Y-95835229D01*
X159788971Y-95875283D01*
X159766583Y-95910347D01*
X159730026Y-95970397D01*
X159711701Y-96010326D01*
X159708354Y-96040193D01*
X159715699Y-96067429D01*
X159749752Y-96115055D01*
X159805711Y-96156851D01*
X159848775Y-96183862D01*
X159864180Y-96203006D01*
X159857340Y-96223131D01*
X159851280Y-96231294D01*
X159817425Y-96248454D01*
X159770486Y-96240439D01*
X159718147Y-96212760D01*
X159668100Y-96170923D01*
X159628030Y-96120439D01*
X159605626Y-96066814D01*
X159603719Y-96053916D01*
X159606189Y-96025913D01*
X159618920Y-95987412D01*
X159643633Y-95935431D01*
X159682057Y-95866989D01*
X159735916Y-95779103D01*
X159790674Y-95694054D01*
X159915539Y-95694054D01*
X159928323Y-95719459D01*
X159966936Y-95744931D01*
X160020531Y-95765282D01*
X160078257Y-95775325D01*
X160086138Y-95775615D01*
X160105199Y-95773130D01*
X160100783Y-95762075D01*
X160069608Y-95738531D01*
X160037252Y-95717137D01*
X159978507Y-95680815D01*
X159943092Y-95665166D01*
X159924462Y-95668945D01*
X159916066Y-95690916D01*
X159915539Y-95694054D01*
X159790674Y-95694054D01*
X159806937Y-95668795D01*
X159839381Y-95619824D01*
X159871819Y-95570859D01*
X160019586Y-95570859D01*
X160021505Y-95580398D01*
X160045759Y-95603836D01*
X160097164Y-95636909D01*
X160168269Y-95676016D01*
X160251615Y-95717557D01*
X160339750Y-95757932D01*
X160425219Y-95793538D01*
X160500566Y-95820776D01*
X160545378Y-95833420D01*
X160633956Y-95847342D01*
X160713769Y-95848516D01*
X160777296Y-95837872D01*
X160817019Y-95816345D01*
X160826299Y-95798577D01*
X160817213Y-95766416D01*
X160788450Y-95724998D01*
X160777408Y-95713138D01*
X160741891Y-95680891D01*
X160683933Y-95631915D01*
X160610441Y-95571694D01*
X160528323Y-95505712D01*
X160444483Y-95439457D01*
X160365826Y-95378412D01*
X160299259Y-95328066D01*
X160251687Y-95293900D01*
X160240219Y-95286419D01*
X160192873Y-95257263D01*
X160100998Y-95405662D01*
X160054269Y-95484493D01*
X160027799Y-95538095D01*
X160019586Y-95570859D01*
X159871819Y-95570859D01*
X159896848Y-95533079D01*
X159957752Y-95442406D01*
X159964276Y-95432535D01*
X160038714Y-95319909D01*
X160123031Y-95188039D01*
X160207774Y-95051767D01*
X160290014Y-94916062D01*
X160366825Y-94785893D01*
X160435280Y-94666228D01*
X160492450Y-94562036D01*
X160535409Y-94478287D01*
X160561229Y-94419951D01*
X160562923Y-94415226D01*
X160577326Y-94358084D01*
X160580841Y-94309250D01*
X160579135Y-94298179D01*
X160569977Y-94276257D01*
X160550939Y-94261038D01*
X160513211Y-94248202D01*
X160447973Y-94233428D01*
X160446272Y-94233072D01*
X160324931Y-94215817D01*
X160186534Y-94209987D01*
X160035541Y-94214550D01*
X159876411Y-94228472D01*
X159713603Y-94250721D01*
X159551572Y-94280266D01*
X159394782Y-94316075D01*
X159247690Y-94357113D01*
X159114755Y-94402350D01*
X159000435Y-94450753D01*
X158909189Y-94501290D01*
X158845479Y-94552929D01*
X158813759Y-94604635D01*
X158812206Y-94611378D01*
X158814490Y-94691637D01*
X158849813Y-94762144D01*
X158914668Y-94819236D01*
X159005546Y-94859250D01*
X159062078Y-94872119D01*
X159144745Y-94880016D01*
X159229847Y-94875169D01*
X159321410Y-94856053D01*
X159423462Y-94821139D01*
X159540035Y-94768902D01*
X159675155Y-94697817D01*
X159832852Y-94606357D01*
X159946182Y-94537233D01*
X160088534Y-94451037D01*
X160203594Y-94385684D01*
X160293796Y-94339905D01*
X160361580Y-94312430D01*
X160394627Y-94303811D01*
X160455146Y-94297862D01*
X160492449Y-94309941D01*
X160517793Y-94344483D01*
X160522243Y-94354083D01*
X160530797Y-94386500D01*
X160513027Y-94403678D01*
X160503578Y-94407484D01*
X160461250Y-94411670D01*
X160440158Y-94405272D01*
X160406098Y-94401660D01*
X160358564Y-94413480D01*
X160352282Y-94416075D01*
X160309274Y-94437501D01*
X160246656Y-94472104D01*
X160171053Y-94515847D01*
X160089085Y-94564694D01*
X160007375Y-94614608D01*
X159932548Y-94661550D01*
X159871223Y-94701489D01*
X159830027Y-94730384D01*
X159815918Y-94742994D01*
X159811454Y-94753327D01*
X159813586Y-94765093D01*
X159826360Y-94782771D01*
X159853816Y-94810845D01*
X159899995Y-94853794D01*
X159968943Y-94916103D01*
X159985488Y-94930982D01*
X160043811Y-94985001D01*
X160078004Y-95021968D01*
X160092644Y-95048252D01*
X160092312Y-95070221D01*
X160090145Y-95076503D01*
X160076623Y-95095719D01*
X160054757Y-95098202D01*
X160020624Y-95081750D01*
X159970306Y-95044153D01*
X159899882Y-94983204D01*
X159859767Y-94946822D01*
X159801475Y-94894361D01*
X159751473Y-94850980D01*
X159717441Y-94823272D01*
X159709363Y-94817664D01*
X159680927Y-94818406D01*
X159632517Y-94835028D01*
X159585071Y-94858367D01*
X159511886Y-94893164D01*
X159424198Y-94926558D01*
X159359091Y-94946335D01*
X159297106Y-94963360D01*
X159252539Y-94977550D01*
X159234278Y-94986054D01*
X159234228Y-94986442D01*
X159249444Y-95000922D01*
X159290910Y-95035196D01*
X159355356Y-95086675D01*
X159439500Y-95152769D01*
X159540071Y-95230890D01*
X159653791Y-95318448D01*
X159669335Y-95330362D01*
X159746098Y-95391128D01*
X159794993Y-95435563D01*
X159819110Y-95467684D01*
X159821542Y-95491510D01*
X159807255Y-95509590D01*
X159794390Y-95514740D01*
X159774960Y-95511615D01*
X159745874Y-95498126D01*
X159704044Y-95472191D01*
X159646380Y-95431721D01*
X159569796Y-95374632D01*
X159471197Y-95298838D01*
X159347501Y-95202254D01*
X159319205Y-95180042D01*
X159216070Y-95100008D01*
X159137057Y-95041138D01*
X159078026Y-95000631D01*
X159034845Y-94975682D01*
X159003375Y-94963488D01*
X158998270Y-94962359D01*
X158890511Y-94924433D01*
X158804393Y-94857163D01*
X158742693Y-94763092D01*
X158722723Y-94709694D01*
X158696261Y-94647918D01*
X158650144Y-94580113D01*
X158579140Y-94498606D01*
X158577931Y-94497315D01*
X158508417Y-94420010D01*
X158433708Y-94331837D01*
X158368258Y-94249932D01*
X158359226Y-94238041D01*
X158312555Y-94179208D01*
X158272091Y-94133991D01*
X158244101Y-94109164D01*
X158237321Y-94106443D01*
X158209535Y-94123629D01*
X158181860Y-94165917D01*
X158159757Y-94221746D01*
X158148683Y-94279551D01*
X158148311Y-94294932D01*
X158153240Y-94342649D01*
X158172210Y-94368947D01*
X158213790Y-94388459D01*
X158254355Y-94406077D01*
X158265478Y-94421434D01*
X158253043Y-94443451D01*
X158251400Y-94445525D01*
X158230551Y-94460825D01*
X158195045Y-94466894D01*
X158137506Y-94464061D01*
X158059831Y-94454030D01*
X157982241Y-94444150D01*
X157916044Y-94438525D01*
X157871640Y-94437928D01*
X157862018Y-94439353D01*
X157838031Y-94455907D01*
X157794706Y-94494622D01*
X157737605Y-94550215D01*
X157672285Y-94617406D01*
X157652238Y-94638692D01*
X157563902Y-94730245D01*
X157496499Y-94793377D01*
X157448691Y-94829276D01*
X157427217Y-94838630D01*
X157376571Y-94837316D01*
X157316109Y-94819265D01*
X157257762Y-94790271D01*
X157213461Y-94756127D01*
X157195509Y-94726094D01*
X157197847Y-94692983D01*
X157222129Y-94682329D01*
X157271480Y-94693776D01*
X157316989Y-94712235D01*
X157367678Y-94732937D01*
X157403780Y-94744470D01*
X157412820Y-94745391D01*
X157429681Y-94731239D01*
X157466490Y-94695026D01*
X157518110Y-94641958D01*
X157579403Y-94577240D01*
X157590586Y-94565270D01*
X157673158Y-94477958D01*
X157736728Y-94415066D01*
X157786700Y-94373137D01*
X157828478Y-94348712D01*
X157867467Y-94338334D01*
X157909074Y-94338547D01*
X157938766Y-94342512D01*
X157991530Y-94348896D01*
X158026518Y-94349230D01*
X158033844Y-94346628D01*
X158042461Y-94318410D01*
X158050472Y-94272016D01*
X158056276Y-94221267D01*
X158058276Y-94179985D01*
X158055203Y-94162131D01*
X158031156Y-94162588D01*
X157993455Y-94172219D01*
X157931593Y-94182464D01*
X157866190Y-94178126D01*
X157812461Y-94161177D01*
X157792463Y-94146143D01*
X157756734Y-94077651D01*
X157742847Y-93993023D01*
X157831422Y-93993023D01*
X157837138Y-94029955D01*
X157849841Y-94068763D01*
X157873972Y-94083535D01*
X157903517Y-94086355D01*
X157962977Y-94082192D01*
X158014237Y-94070986D01*
X158115447Y-94029604D01*
X158340882Y-94029604D01*
X158349241Y-94059745D01*
X158377931Y-94106434D01*
X158409732Y-94151456D01*
X158448709Y-94202377D01*
X158499992Y-94264948D01*
X158557263Y-94331983D01*
X158614208Y-94396305D01*
X158664507Y-94450728D01*
X158701850Y-94488075D01*
X158715960Y-94499654D01*
X158744975Y-94497456D01*
X158790716Y-94470106D01*
X158811171Y-94453700D01*
X158865869Y-94414854D01*
X158939026Y-94372833D01*
X159010358Y-94338728D01*
X159072784Y-94311315D01*
X159120331Y-94288587D01*
X159143980Y-94274891D01*
X159144920Y-94273865D01*
X159135717Y-94256987D01*
X159105852Y-94218805D01*
X159060243Y-94164823D01*
X159003807Y-94100543D01*
X158941459Y-94031470D01*
X158878118Y-93963103D01*
X158818702Y-93900951D01*
X158768126Y-93850516D01*
X158758504Y-93841380D01*
X158698110Y-93790950D01*
X158654284Y-93770158D01*
X158623066Y-93777794D01*
X158608668Y-93795645D01*
X158581932Y-93827333D01*
X158534488Y-93871531D01*
X158476251Y-93919889D01*
X158417140Y-93964056D01*
X158379524Y-93988619D01*
X158351446Y-94008425D01*
X158340882Y-94029604D01*
X158115447Y-94029604D01*
X158118844Y-94028215D01*
X158236034Y-93964719D01*
X158254741Y-93952592D01*
X158354382Y-93887995D01*
X158462461Y-93805540D01*
X158548843Y-93724850D01*
X158559174Y-93713419D01*
X158597570Y-93646027D01*
X158601483Y-93575180D01*
X158572420Y-93506243D01*
X158511882Y-93444576D01*
X158477386Y-93422107D01*
X158411942Y-93389180D01*
X158367628Y-93380054D01*
X158337218Y-93394677D01*
X158319270Y-93421034D01*
X158289516Y-93459316D01*
X158261921Y-93462062D01*
X158241504Y-93429755D01*
X158237496Y-93413111D01*
X158214749Y-93361605D01*
X158170654Y-93339872D01*
X158107620Y-93346410D01*
X158074774Y-93357883D01*
X158048144Y-93376780D01*
X158020789Y-93410583D01*
X157985769Y-93466771D01*
X157968628Y-93496203D01*
X157904355Y-93626142D01*
X157858679Y-93757874D01*
X157833676Y-93882976D01*
X157831422Y-93993023D01*
X157742847Y-93993023D01*
X157740689Y-93979870D01*
X157744671Y-93855115D01*
X157746779Y-93836185D01*
X157755356Y-93771359D01*
X157765591Y-93719783D01*
X157781059Y-93672089D01*
X157805341Y-93618906D01*
X157842012Y-93550867D01*
X157883642Y-93477758D01*
X157896849Y-93454760D01*
X158002302Y-93271138D01*
X158107044Y-93249614D01*
X158160676Y-93237657D01*
X158193562Y-93223309D01*
X158209989Y-93198515D01*
X158214244Y-93155215D01*
X158210617Y-93085356D01*
X158208681Y-93058664D01*
X158207378Y-92987545D01*
X158210852Y-92890884D01*
X158218254Y-92779763D01*
X158228723Y-92665266D01*
X158241408Y-92558474D01*
X158253001Y-92483657D01*
X158269050Y-92410048D01*
X158285676Y-92368423D01*
X158302376Y-92354226D01*
X158335175Y-92357286D01*
G37*
G36*
X158237863Y-94551272D02*
G01*
X158287450Y-94593901D01*
X158303857Y-94612630D01*
X158337593Y-94651820D01*
X158359987Y-94675015D01*
X158364675Y-94677956D01*
X158405744Y-94652398D01*
X158445577Y-94640777D01*
X158462432Y-94643261D01*
X158471514Y-94665725D01*
X158479765Y-94717135D01*
X158486175Y-94789391D01*
X158489351Y-94858650D01*
X158490598Y-94957453D01*
X158486867Y-95030429D01*
X158476672Y-95088648D01*
X158458531Y-95143175D01*
X158447811Y-95168483D01*
X158423015Y-95228882D01*
X158406217Y-95278289D01*
X158401380Y-95302485D01*
X158415784Y-95329040D01*
X158451292Y-95364805D01*
X158472332Y-95381565D01*
X158513901Y-95414995D01*
X158528877Y-95437805D01*
X158522158Y-95458888D01*
X158518040Y-95464454D01*
X158485318Y-95479830D01*
X158439332Y-95470519D01*
X158389434Y-95441178D01*
X158344978Y-95396473D01*
X158327545Y-95369506D01*
X158314219Y-95341175D01*
X158308192Y-95313110D01*
X158310695Y-95278344D01*
X158322962Y-95229904D01*
X158346224Y-95160821D01*
X158381378Y-95065031D01*
X158393762Y-95010492D01*
X158398682Y-94944649D01*
X158398423Y-94930716D01*
X158390262Y-94874634D01*
X158366165Y-94826735D01*
X158321449Y-94774816D01*
X158245818Y-94692101D01*
X158194735Y-94625916D01*
X158169804Y-94578580D01*
X158169725Y-94555917D01*
X158197259Y-94538035D01*
X158237863Y-94551272D01*
G37*
G36*
X158618818Y-94923697D02*
G01*
X158656704Y-94946800D01*
X158713434Y-94987304D01*
X158786386Y-95042370D01*
X158906430Y-95128333D01*
X159058850Y-95227401D01*
X159244375Y-95340036D01*
X159350550Y-95402033D01*
X159478823Y-95476564D01*
X159577464Y-95535335D01*
X159649248Y-95580549D01*
X159696948Y-95614404D01*
X159723346Y-95639102D01*
X159731212Y-95656847D01*
X159723325Y-95669840D01*
X159702458Y-95680282D01*
X159701683Y-95680571D01*
X159686599Y-95681678D01*
X159662217Y-95675093D01*
X159624814Y-95658909D01*
X159570675Y-95631223D01*
X159496079Y-95590133D01*
X159397312Y-95533732D01*
X159270651Y-95460116D01*
X159266846Y-95457894D01*
X159149613Y-95388714D01*
X159037005Y-95320995D01*
X158934949Y-95258401D01*
X158849372Y-95204590D01*
X158786200Y-95163225D01*
X158760230Y-95144947D01*
X158668109Y-95074545D01*
X158604467Y-95021213D01*
X158566763Y-94981763D01*
X158552451Y-94952999D01*
X158558996Y-94931731D01*
X158578913Y-94917237D01*
X158594610Y-94914884D01*
X158618818Y-94923697D01*
G37*
%TD*%
D11*
%TO.C,J1*%
X146907898Y-94907898D03*
D12*
X148703949Y-96703949D03*
X150500000Y-98500000D03*
X152296052Y-100296052D03*
X154092103Y-102092103D03*
X155888154Y-103888154D03*
%TD*%
D13*
%TO.C,BZ1*%
X147500000Y-104500000D03*
X152500000Y-104500000D03*
%TD*%
D14*
%TO.C,BT1*%
X160500000Y-100000000D03*
X141100000Y-100000000D03*
%TD*%
M02*
