%TF.GenerationSoftware,KiCad,Pcbnew,9.0.6-9.0.6~ubuntu24.04.1*%
%TF.CreationDate,2025-12-16T20:38:12-08:00*%
%TF.ProjectId,Shy_Beeper,5368795f-4265-4657-9065-722e6b696361,rev?*%
%TF.SameCoordinates,Original*%
%TF.FileFunction,Copper,L1,Top*%
%TF.FilePolarity,Positive*%
%FSLAX46Y46*%
G04 Gerber Fmt 4.6, Leading zero omitted, Abs format (unit mm)*
G04 Created by KiCad (PCBNEW 9.0.6-9.0.6~ubuntu24.04.1) date 2025-12-16 20:38:12*
%MOMM*%
%LPD*%
G01*
G04 APERTURE LIST*
G04 Aperture macros list*
%AMRotRect*
0 Rectangle, with rotation*
0 The origin of the aperture is its center*
0 $1 length*
0 $2 width*
0 $3 Rotation angle, in degrees counterclockwise*
0 Add horizontal line*
21,1,$1,$2,0,0,$3*%
G04 Aperture macros list end*
%TA.AperFunction,ComponentPad*%
%ADD10RotRect,1.700000X1.700000X45.000000*%
%TD*%
%TA.AperFunction,ComponentPad*%
%ADD11C,1.700000*%
%TD*%
%TA.AperFunction,ComponentPad*%
%ADD12C,2.000000*%
%TD*%
%TA.AperFunction,ComponentPad*%
%ADD13C,3.000000*%
%TD*%
%TA.AperFunction,ViaPad*%
%ADD14C,0.600000*%
%TD*%
G04 APERTURE END LIST*
D10*
%TO.P,J1,1,Pin_1*%
%TO.N,/MOSI*%
X146907898Y-94907898D03*
D11*
%TO.P,J1,2,Pin_2*%
%TO.N,/MISO*%
X148703949Y-96703949D03*
%TO.P,J1,3,Pin_3*%
%TO.N,/SCK*%
X150500000Y-98500000D03*
%TO.P,J1,4,Pin_4*%
%TO.N,/SS*%
X152296052Y-100296052D03*
%TO.P,J1,5,Pin_5*%
%TO.N,GND*%
X154092103Y-102092103D03*
%TO.P,J1,6,Pin_6*%
%TO.N,+3V0*%
X155888154Y-103888154D03*
%TD*%
D12*
%TO.P,BZ1,2*%
%TO.N,Net-(U1-PB4)*%
X147500000Y-104500000D03*
%TO.P,BZ1,1*%
%TO.N,Net-(U1-PB3)*%
X152500000Y-104500000D03*
%TD*%
D13*
%TO.P,BT1,1,+*%
%TO.N,+3V0*%
X160500000Y-100000000D03*
%TO.P,BT1,2,-*%
%TO.N,GND*%
X141100000Y-100000000D03*
%TD*%
D14*
%TO.N,GND*%
X145000000Y-110000000D03*
X147500000Y-110000000D03*
X150000000Y-110000000D03*
X152500000Y-110000000D03*
X155000000Y-110000000D03*
X160000000Y-102500000D03*
X160000000Y-105000000D03*
X157500000Y-105000000D03*
X157500000Y-107500000D03*
X155000000Y-107500000D03*
X152500000Y-107500000D03*
X150000000Y-107500000D03*
X147500000Y-107500000D03*
X145000000Y-107500000D03*
X142500000Y-107500000D03*
X140000000Y-105000000D03*
X142500000Y-105000000D03*
X145000000Y-105000000D03*
X147500000Y-102500000D03*
X150000000Y-102500000D03*
X150000000Y-100000000D03*
X147500000Y-100000000D03*
X145000000Y-100000000D03*
X145000000Y-102500000D03*
X142500000Y-102500000D03*
X140000000Y-102500000D03*
X140000000Y-97500000D03*
X155000000Y-90000000D03*
X152500000Y-90000000D03*
X145000000Y-90000000D03*
X145000000Y-92500000D03*
X145000000Y-97500000D03*
X153882737Y-99149932D03*
X154627303Y-99559785D03*
%TD*%
%TA.AperFunction,Conductor*%
%TO.N,GND*%
G36*
X150348960Y-87686541D02*
G01*
X151031916Y-87724894D01*
X151038832Y-87725478D01*
X151718572Y-87802067D01*
X151725404Y-87803031D01*
X152399824Y-87917620D01*
X152406578Y-87918963D01*
X153073496Y-88071182D01*
X153080189Y-88072908D01*
X153737516Y-88262281D01*
X153744111Y-88264384D01*
X154389778Y-88490311D01*
X154396242Y-88492779D01*
X155028215Y-88754551D01*
X155034547Y-88757384D01*
X155650839Y-89054175D01*
X155657010Y-89057363D01*
X156255680Y-89388237D01*
X156261671Y-89391771D01*
X156840845Y-89755690D01*
X156846622Y-89759550D01*
X157404506Y-90155389D01*
X157410030Y-90159546D01*
X157944838Y-90586042D01*
X157950132Y-90590513D01*
X158460186Y-91046324D01*
X158465240Y-91051103D01*
X158948896Y-91534759D01*
X158953675Y-91539813D01*
X159409478Y-92049857D01*
X159413960Y-92055165D01*
X159840448Y-92589963D01*
X159844623Y-92595510D01*
X160240445Y-93153371D01*
X160244309Y-93159154D01*
X160608228Y-93738328D01*
X160611762Y-93744319D01*
X160942636Y-94342989D01*
X160945828Y-94349168D01*
X161242611Y-94965444D01*
X161245452Y-94971793D01*
X161507213Y-95603740D01*
X161509694Y-95610239D01*
X161735610Y-96255872D01*
X161737722Y-96262498D01*
X161927086Y-96919793D01*
X161928823Y-96926528D01*
X162052841Y-97469890D01*
X162081028Y-97593383D01*
X162082385Y-97600205D01*
X162196964Y-98274568D01*
X162197936Y-98281456D01*
X162233197Y-98594409D01*
X162221143Y-98663230D01*
X162173793Y-98714610D01*
X162106183Y-98732234D01*
X162039777Y-98710507D01*
X162011605Y-98683782D01*
X162007282Y-98678149D01*
X162007278Y-98678145D01*
X162007275Y-98678141D01*
X161821860Y-98492726D01*
X161821851Y-98492718D01*
X161613803Y-98333075D01*
X161386700Y-98201958D01*
X161386690Y-98201953D01*
X161144428Y-98101605D01*
X161144421Y-98101603D01*
X161144419Y-98101602D01*
X160891116Y-98033730D01*
X160833339Y-98026123D01*
X160631127Y-97999500D01*
X160631120Y-97999500D01*
X160368880Y-97999500D01*
X160368872Y-97999500D01*
X160137772Y-98029926D01*
X160108884Y-98033730D01*
X159855581Y-98101602D01*
X159855571Y-98101605D01*
X159613309Y-98201953D01*
X159613299Y-98201958D01*
X159386196Y-98333075D01*
X159178148Y-98492718D01*
X158992718Y-98678148D01*
X158833075Y-98886196D01*
X158701958Y-99113299D01*
X158701953Y-99113309D01*
X158601605Y-99355571D01*
X158601602Y-99355581D01*
X158533730Y-99608884D01*
X158533716Y-99608990D01*
X158499500Y-99868872D01*
X158499500Y-100131127D01*
X158526123Y-100333339D01*
X158533730Y-100391116D01*
X158595656Y-100622228D01*
X158601602Y-100644418D01*
X158601605Y-100644428D01*
X158701953Y-100886690D01*
X158701958Y-100886700D01*
X158833075Y-101113803D01*
X158992718Y-101321851D01*
X158992726Y-101321860D01*
X159178140Y-101507274D01*
X159178148Y-101507281D01*
X159386196Y-101666924D01*
X159613299Y-101798041D01*
X159613309Y-101798046D01*
X159855571Y-101898394D01*
X159855581Y-101898398D01*
X160108884Y-101966270D01*
X160357188Y-101998960D01*
X160365074Y-101999999D01*
X160368880Y-102000500D01*
X160368887Y-102000500D01*
X160631113Y-102000500D01*
X160631120Y-102000500D01*
X160891116Y-101966270D01*
X161144419Y-101898398D01*
X161386697Y-101798043D01*
X161613803Y-101666924D01*
X161821851Y-101507282D01*
X161821855Y-101507277D01*
X161821860Y-101507274D01*
X162007274Y-101321860D01*
X162007278Y-101321855D01*
X162007282Y-101321851D01*
X162011600Y-101316223D01*
X162068024Y-101275020D01*
X162137770Y-101270862D01*
X162198692Y-101305071D01*
X162231447Y-101366787D01*
X162233197Y-101405590D01*
X162197936Y-101718543D01*
X162196964Y-101725431D01*
X162082385Y-102399794D01*
X162081028Y-102406612D01*
X162046469Y-102558028D01*
X161928823Y-103073471D01*
X161927086Y-103080206D01*
X161737722Y-103737501D01*
X161735610Y-103744127D01*
X161509694Y-104389760D01*
X161507213Y-104396259D01*
X161245452Y-105028206D01*
X161242611Y-105034555D01*
X160945828Y-105650831D01*
X160942636Y-105657010D01*
X160611762Y-106255680D01*
X160608228Y-106261671D01*
X160244309Y-106840845D01*
X160240445Y-106846628D01*
X159844623Y-107404489D01*
X159840440Y-107410047D01*
X159413965Y-107944828D01*
X159409478Y-107950142D01*
X158953675Y-108460186D01*
X158948896Y-108465240D01*
X158465240Y-108948896D01*
X158460186Y-108953675D01*
X157950142Y-109409478D01*
X157944828Y-109413965D01*
X157410047Y-109840440D01*
X157404489Y-109844623D01*
X156846628Y-110240445D01*
X156840845Y-110244309D01*
X156261671Y-110608228D01*
X156255680Y-110611762D01*
X155657010Y-110942636D01*
X155650831Y-110945828D01*
X155034555Y-111242611D01*
X155028206Y-111245452D01*
X154396259Y-111507213D01*
X154389760Y-111509694D01*
X153744127Y-111735610D01*
X153737501Y-111737722D01*
X153080206Y-111927086D01*
X153073471Y-111928823D01*
X152406616Y-112081028D01*
X152399794Y-112082385D01*
X151725431Y-112196964D01*
X151718544Y-112197936D01*
X151038839Y-112274520D01*
X151031908Y-112275105D01*
X150348960Y-112313459D01*
X150342007Y-112313654D01*
X149657993Y-112313654D01*
X149651040Y-112313459D01*
X148968091Y-112275105D01*
X148961160Y-112274520D01*
X148281455Y-112197936D01*
X148274568Y-112196964D01*
X147937386Y-112139674D01*
X147600202Y-112082384D01*
X147593394Y-112081030D01*
X146926528Y-111928823D01*
X146919793Y-111927086D01*
X146262498Y-111737722D01*
X146255872Y-111735610D01*
X145610239Y-111509694D01*
X145603740Y-111507213D01*
X144971793Y-111245452D01*
X144965444Y-111242611D01*
X144349168Y-110945828D01*
X144342989Y-110942636D01*
X143744319Y-110611762D01*
X143738328Y-110608228D01*
X143159154Y-110244309D01*
X143153371Y-110240445D01*
X142744956Y-109950660D01*
X142595499Y-109844614D01*
X142589963Y-109840448D01*
X142055165Y-109413960D01*
X142049857Y-109409478D01*
X141539813Y-108953675D01*
X141534759Y-108948896D01*
X141051103Y-108465240D01*
X141046324Y-108460186D01*
X140590521Y-107950142D01*
X140586034Y-107944828D01*
X140159546Y-107410030D01*
X140155389Y-107404506D01*
X139759550Y-106846622D01*
X139755690Y-106840845D01*
X139753530Y-106837408D01*
X139631800Y-106643676D01*
X139391771Y-106261671D01*
X139388237Y-106255680D01*
X139057363Y-105657010D01*
X139054171Y-105650831D01*
X139051130Y-105644517D01*
X138757384Y-105034547D01*
X138754547Y-105028206D01*
X138709005Y-104918258D01*
X138492784Y-104396254D01*
X138490311Y-104389778D01*
X138487555Y-104381902D01*
X145999500Y-104381902D01*
X145999500Y-104618097D01*
X146036446Y-104851368D01*
X146109433Y-105075996D01*
X146192312Y-105238654D01*
X146216657Y-105286433D01*
X146355483Y-105477510D01*
X146522490Y-105644517D01*
X146713567Y-105783343D01*
X146812991Y-105834002D01*
X146924003Y-105890566D01*
X146924005Y-105890566D01*
X146924008Y-105890568D01*
X147044412Y-105929689D01*
X147148631Y-105963553D01*
X147381903Y-106000500D01*
X147381908Y-106000500D01*
X147618097Y-106000500D01*
X147851368Y-105963553D01*
X148075992Y-105890568D01*
X148286433Y-105783343D01*
X148477510Y-105644517D01*
X148644517Y-105477510D01*
X148783343Y-105286433D01*
X148890568Y-105075992D01*
X148963553Y-104851368D01*
X148976767Y-104767940D01*
X149000500Y-104618097D01*
X149000500Y-104381902D01*
X148963553Y-104148631D01*
X148890566Y-103924003D01*
X148834002Y-103812991D01*
X148783343Y-103713567D01*
X148644517Y-103522490D01*
X148477510Y-103355483D01*
X148286433Y-103216657D01*
X148075996Y-103109433D01*
X147851368Y-103036446D01*
X147618097Y-102999500D01*
X147618092Y-102999500D01*
X147381908Y-102999500D01*
X147381903Y-102999500D01*
X147148631Y-103036446D01*
X146924003Y-103109433D01*
X146713566Y-103216657D01*
X146604550Y-103295862D01*
X146522490Y-103355483D01*
X146522488Y-103355485D01*
X146522487Y-103355485D01*
X146355485Y-103522487D01*
X146355485Y-103522488D01*
X146355483Y-103522490D01*
X146319574Y-103571914D01*
X146216657Y-103713566D01*
X146109433Y-103924003D01*
X146036446Y-104148631D01*
X145999500Y-104381902D01*
X138487555Y-104381902D01*
X138264384Y-103744111D01*
X138262277Y-103737501D01*
X138072908Y-103080189D01*
X138071182Y-103073496D01*
X137918963Y-102406578D01*
X137917620Y-102399824D01*
X137803031Y-101725404D01*
X137802067Y-101718572D01*
X137725478Y-101038832D01*
X137724894Y-101031908D01*
X137724602Y-101026714D01*
X137686541Y-100348960D01*
X137686346Y-100342007D01*
X137686346Y-99868905D01*
X139100000Y-99868905D01*
X139100000Y-100131094D01*
X139134220Y-100391009D01*
X139134222Y-100391020D01*
X139202075Y-100644255D01*
X139302404Y-100886471D01*
X139302409Y-100886482D01*
X139433488Y-101113516D01*
X139433494Y-101113524D01*
X139520080Y-101226365D01*
X140617037Y-100129408D01*
X140634075Y-100192993D01*
X140699901Y-100307007D01*
X140792993Y-100400099D01*
X140907007Y-100465925D01*
X140970590Y-100482962D01*
X139873633Y-101579917D01*
X139873633Y-101579918D01*
X139986475Y-101666505D01*
X139986483Y-101666511D01*
X140213517Y-101797590D01*
X140213528Y-101797595D01*
X140455744Y-101897924D01*
X140708979Y-101965777D01*
X140708990Y-101965779D01*
X140968905Y-101999999D01*
X140968920Y-102000000D01*
X141231080Y-102000000D01*
X141231094Y-101999999D01*
X141491009Y-101965779D01*
X141491020Y-101965777D01*
X141744255Y-101897924D01*
X141986471Y-101797595D01*
X141986482Y-101797590D01*
X142213516Y-101666511D01*
X142213534Y-101666499D01*
X142326365Y-101579919D01*
X142326365Y-101579917D01*
X141229409Y-100482962D01*
X141292993Y-100465925D01*
X141407007Y-100400099D01*
X141500099Y-100307007D01*
X141565925Y-100192993D01*
X141582962Y-100129410D01*
X142679917Y-101226365D01*
X142679919Y-101226365D01*
X142766499Y-101113534D01*
X142766511Y-101113516D01*
X142897590Y-100886482D01*
X142897595Y-100886471D01*
X142997924Y-100644255D01*
X143065777Y-100391020D01*
X143065779Y-100391009D01*
X143099999Y-100131094D01*
X143100000Y-100131080D01*
X143100000Y-99868919D01*
X143099999Y-99868905D01*
X143065779Y-99608990D01*
X143065777Y-99608979D01*
X142997924Y-99355744D01*
X142897595Y-99113528D01*
X142897590Y-99113517D01*
X142766511Y-98886483D01*
X142766505Y-98886475D01*
X142679918Y-98773633D01*
X142679917Y-98773633D01*
X141582962Y-99870588D01*
X141565925Y-99807007D01*
X141500099Y-99692993D01*
X141407007Y-99599901D01*
X141292993Y-99534075D01*
X141229407Y-99517037D01*
X142326365Y-98420080D01*
X142213524Y-98333494D01*
X142213516Y-98333488D01*
X141986482Y-98202409D01*
X141986471Y-98202404D01*
X141744255Y-98102075D01*
X141491020Y-98034222D01*
X141491009Y-98034220D01*
X141231094Y-98000000D01*
X140968905Y-98000000D01*
X140708990Y-98034220D01*
X140708979Y-98034222D01*
X140455744Y-98102075D01*
X140213528Y-98202404D01*
X140213517Y-98202409D01*
X139986471Y-98333496D01*
X139873633Y-98420079D01*
X139873633Y-98420080D01*
X140970590Y-99517037D01*
X140907007Y-99534075D01*
X140792993Y-99599901D01*
X140699901Y-99692993D01*
X140634075Y-99807007D01*
X140617037Y-99870590D01*
X139520080Y-98773633D01*
X139520079Y-98773633D01*
X139433496Y-98886471D01*
X139302409Y-99113517D01*
X139302404Y-99113528D01*
X139202075Y-99355744D01*
X139134222Y-99608979D01*
X139134220Y-99608990D01*
X139100000Y-99868905D01*
X137686346Y-99868905D01*
X137686346Y-99657992D01*
X137686541Y-99651039D01*
X137690068Y-99588231D01*
X137724894Y-98968080D01*
X137725479Y-98961161D01*
X137802067Y-98281422D01*
X137803030Y-98274600D01*
X137917621Y-97600168D01*
X137918961Y-97593428D01*
X138071184Y-96926495D01*
X138072906Y-96919819D01*
X138262284Y-96262473D01*
X138264380Y-96255898D01*
X138490316Y-95610209D01*
X138492774Y-95603768D01*
X138754556Y-94971771D01*
X138757378Y-94965465D01*
X138785101Y-94907898D01*
X145200170Y-94907898D01*
X145220650Y-95050353D01*
X145220651Y-95050357D01*
X145280437Y-95181268D01*
X145280438Y-95181269D01*
X145280439Y-95181271D01*
X145318058Y-95227954D01*
X145318061Y-95227957D01*
X145318066Y-95227963D01*
X146405646Y-96315540D01*
X146587842Y-96497736D01*
X146587846Y-96497739D01*
X146587848Y-96497741D01*
X146634524Y-96535357D01*
X146765438Y-96595144D01*
X146765439Y-96595144D01*
X146765441Y-96595145D01*
X146907898Y-96615626D01*
X147050355Y-96595145D01*
X147073242Y-96584692D01*
X147177937Y-96536880D01*
X147247096Y-96526936D01*
X147310651Y-96555961D01*
X147348426Y-96614739D01*
X147353449Y-96649674D01*
X147353449Y-96810235D01*
X147386701Y-97020184D01*
X147386703Y-97020192D01*
X147439523Y-97182755D01*
X147452393Y-97222363D01*
X147548900Y-97411769D01*
X147673839Y-97583735D01*
X147824162Y-97734058D01*
X147996128Y-97858997D01*
X147996130Y-97858998D01*
X147996133Y-97859000D01*
X148185537Y-97955506D01*
X148387706Y-98021195D01*
X148597662Y-98054449D01*
X148597663Y-98054449D01*
X148810235Y-98054449D01*
X148810236Y-98054449D01*
X149020192Y-98021195D01*
X149029539Y-98018157D01*
X149099374Y-98016157D01*
X149159210Y-98052232D01*
X149190043Y-98114931D01*
X149185795Y-98174394D01*
X149182755Y-98183751D01*
X149182753Y-98183759D01*
X149149500Y-98393713D01*
X149149500Y-98606286D01*
X149182753Y-98816239D01*
X149182753Y-98816241D01*
X149182754Y-98816243D01*
X149237209Y-98983839D01*
X149248444Y-99018414D01*
X149344951Y-99207820D01*
X149469890Y-99379786D01*
X149620213Y-99530109D01*
X149792179Y-99655048D01*
X149792181Y-99655049D01*
X149792184Y-99655051D01*
X149981588Y-99751557D01*
X150183757Y-99817246D01*
X150393713Y-99850500D01*
X150393714Y-99850500D01*
X150606286Y-99850500D01*
X150606287Y-99850500D01*
X150816243Y-99817246D01*
X150825593Y-99814207D01*
X150895432Y-99812209D01*
X150955266Y-99848287D01*
X150986097Y-99910987D01*
X150981847Y-99970450D01*
X150978805Y-99979812D01*
X150954839Y-100131127D01*
X150945552Y-100189765D01*
X150945552Y-100402339D01*
X150978806Y-100612295D01*
X151033452Y-100780478D01*
X151044496Y-100814466D01*
X151141003Y-101003872D01*
X151265942Y-101175838D01*
X151416265Y-101326161D01*
X151588231Y-101451100D01*
X151588233Y-101451101D01*
X151588236Y-101451103D01*
X151777640Y-101547609D01*
X151979809Y-101613298D01*
X152189765Y-101646552D01*
X152189766Y-101646552D01*
X152402338Y-101646552D01*
X152402339Y-101646552D01*
X152612295Y-101613298D01*
X152622232Y-101610068D01*
X152692073Y-101608072D01*
X152751906Y-101644152D01*
X152782736Y-101706852D01*
X152778484Y-101766314D01*
X152775346Y-101775972D01*
X152775345Y-101775976D01*
X152764872Y-101842103D01*
X153659091Y-101842103D01*
X153626178Y-101899110D01*
X153592103Y-102026277D01*
X153592103Y-102157929D01*
X153626178Y-102285096D01*
X153659091Y-102342103D01*
X152764872Y-102342103D01*
X152775345Y-102408229D01*
X152775345Y-102408232D01*
X152841007Y-102610320D01*
X152937482Y-102799660D01*
X152967125Y-102840461D01*
X152990605Y-102906267D01*
X152974779Y-102974321D01*
X152924674Y-103023016D01*
X152856195Y-103036891D01*
X152847409Y-103035819D01*
X152618097Y-102999500D01*
X152618092Y-102999500D01*
X152381908Y-102999500D01*
X152381903Y-102999500D01*
X152148631Y-103036446D01*
X151924003Y-103109433D01*
X151713566Y-103216657D01*
X151604550Y-103295862D01*
X151522490Y-103355483D01*
X151522488Y-103355485D01*
X151522487Y-103355485D01*
X151355485Y-103522487D01*
X151355485Y-103522488D01*
X151355483Y-103522490D01*
X151319574Y-103571914D01*
X151216657Y-103713566D01*
X151109433Y-103924003D01*
X151036446Y-104148631D01*
X150999500Y-104381902D01*
X150999500Y-104618097D01*
X151036446Y-104851368D01*
X151109433Y-105075996D01*
X151192312Y-105238654D01*
X151216657Y-105286433D01*
X151355483Y-105477510D01*
X151522490Y-105644517D01*
X151713567Y-105783343D01*
X151812991Y-105834002D01*
X151924003Y-105890566D01*
X151924005Y-105890566D01*
X151924008Y-105890568D01*
X152044412Y-105929689D01*
X152148631Y-105963553D01*
X152381903Y-106000500D01*
X152381908Y-106000500D01*
X152618097Y-106000500D01*
X152851368Y-105963553D01*
X153075992Y-105890568D01*
X153286433Y-105783343D01*
X153477510Y-105644517D01*
X153644517Y-105477510D01*
X153783343Y-105286433D01*
X153890568Y-105075992D01*
X153963553Y-104851368D01*
X153976767Y-104767940D01*
X154000500Y-104618097D01*
X154000500Y-104381902D01*
X153963553Y-104148631D01*
X153890566Y-103924003D01*
X153834002Y-103812991D01*
X153783343Y-103713567D01*
X153710090Y-103612744D01*
X153686611Y-103546938D01*
X153702436Y-103478884D01*
X153752542Y-103430189D01*
X153821020Y-103416314D01*
X153829808Y-103417386D01*
X153842103Y-103419333D01*
X153842103Y-102525115D01*
X153899110Y-102558028D01*
X154026277Y-102592103D01*
X154157929Y-102592103D01*
X154285096Y-102558028D01*
X154342103Y-102525115D01*
X154342103Y-103419333D01*
X154408227Y-103408861D01*
X154417881Y-103405724D01*
X154487722Y-103403725D01*
X154547557Y-103439802D01*
X154578389Y-103502501D01*
X154574140Y-103561963D01*
X154570907Y-103571914D01*
X154537654Y-103781867D01*
X154537654Y-103994440D01*
X154562075Y-104148632D01*
X154570908Y-104204397D01*
X154631136Y-104389760D01*
X154636598Y-104406568D01*
X154733105Y-104595974D01*
X154858044Y-104767940D01*
X155008367Y-104918263D01*
X155180333Y-105043202D01*
X155180335Y-105043203D01*
X155180338Y-105043205D01*
X155369742Y-105139711D01*
X155571911Y-105205400D01*
X155781867Y-105238654D01*
X155781868Y-105238654D01*
X155994440Y-105238654D01*
X155994441Y-105238654D01*
X156204397Y-105205400D01*
X156406566Y-105139711D01*
X156595970Y-105043205D01*
X156644716Y-105007789D01*
X156767940Y-104918263D01*
X156767942Y-104918260D01*
X156767946Y-104918258D01*
X156918258Y-104767946D01*
X156918260Y-104767942D01*
X156918263Y-104767940D01*
X157043202Y-104595974D01*
X157043201Y-104595974D01*
X157043205Y-104595970D01*
X157139711Y-104406566D01*
X157205400Y-104204397D01*
X157238654Y-103994441D01*
X157238654Y-103781867D01*
X157205400Y-103571911D01*
X157139711Y-103369742D01*
X157043205Y-103180338D01*
X157043203Y-103180335D01*
X157043202Y-103180333D01*
X156918263Y-103008367D01*
X156767940Y-102858044D01*
X156595974Y-102733105D01*
X156406568Y-102636598D01*
X156406567Y-102636597D01*
X156406566Y-102636597D01*
X156204397Y-102570908D01*
X156204395Y-102570907D01*
X156204394Y-102570907D01*
X156009543Y-102540046D01*
X155994441Y-102537654D01*
X155781867Y-102537654D01*
X155766765Y-102540046D01*
X155571914Y-102570907D01*
X155561963Y-102574140D01*
X155492122Y-102576130D01*
X155432292Y-102540046D01*
X155401468Y-102477343D01*
X155405724Y-102417881D01*
X155408861Y-102408227D01*
X155419334Y-102342103D01*
X154525115Y-102342103D01*
X154558028Y-102285096D01*
X154592103Y-102157929D01*
X154592103Y-102026277D01*
X154558028Y-101899110D01*
X154525115Y-101842103D01*
X155419334Y-101842103D01*
X155408860Y-101775976D01*
X155408860Y-101775973D01*
X155343198Y-101573885D01*
X155246723Y-101384545D01*
X155121830Y-101212643D01*
X155121826Y-101212638D01*
X154971567Y-101062379D01*
X154971562Y-101062375D01*
X154799660Y-100937482D01*
X154610318Y-100841006D01*
X154408227Y-100775344D01*
X154342103Y-100764871D01*
X154342103Y-101659091D01*
X154285096Y-101626178D01*
X154157929Y-101592103D01*
X154026277Y-101592103D01*
X153899110Y-101626178D01*
X153842103Y-101659091D01*
X153842103Y-100809557D01*
X153703910Y-100782191D01*
X153700413Y-100780365D01*
X153696472Y-100780478D01*
X153669698Y-100764332D01*
X153641971Y-100749858D01*
X153640016Y-100746432D01*
X153636640Y-100744396D01*
X153622844Y-100716336D01*
X153607346Y-100689172D01*
X153607553Y-100685233D01*
X153605814Y-100681695D01*
X153610068Y-100622234D01*
X153613298Y-100612295D01*
X153646552Y-100402339D01*
X153646552Y-100189765D01*
X153613298Y-99979809D01*
X153547609Y-99777640D01*
X153451103Y-99588236D01*
X153451101Y-99588233D01*
X153451100Y-99588231D01*
X153326161Y-99416265D01*
X153175838Y-99265942D01*
X153003872Y-99141003D01*
X152814466Y-99044496D01*
X152814465Y-99044495D01*
X152814464Y-99044495D01*
X152612295Y-98978806D01*
X152612293Y-98978805D01*
X152612292Y-98978805D01*
X152416254Y-98947756D01*
X152402339Y-98945552D01*
X152189765Y-98945552D01*
X152175850Y-98947756D01*
X151979812Y-98978805D01*
X151970450Y-98981847D01*
X151900609Y-98983839D01*
X151840778Y-98947756D01*
X151809952Y-98885054D01*
X151814207Y-98825593D01*
X151817246Y-98816243D01*
X151850500Y-98606287D01*
X151850500Y-98393713D01*
X151817246Y-98183757D01*
X151751557Y-97981588D01*
X151655051Y-97792184D01*
X151655049Y-97792181D01*
X151655048Y-97792179D01*
X151530109Y-97620213D01*
X151379786Y-97469890D01*
X151207820Y-97344951D01*
X151018414Y-97248444D01*
X151018413Y-97248443D01*
X151018412Y-97248443D01*
X150816243Y-97182754D01*
X150816241Y-97182753D01*
X150816240Y-97182753D01*
X150654957Y-97157208D01*
X150606287Y-97149500D01*
X150393713Y-97149500D01*
X150354202Y-97155757D01*
X150183759Y-97182753D01*
X150183751Y-97182755D01*
X150174394Y-97185795D01*
X150104553Y-97187785D01*
X150044723Y-97151699D01*
X150013900Y-97088995D01*
X150018157Y-97029540D01*
X150021195Y-97020192D01*
X150054449Y-96810236D01*
X150054449Y-96597662D01*
X150021195Y-96387706D01*
X149955506Y-96185537D01*
X149859000Y-95996133D01*
X149858998Y-95996130D01*
X149858997Y-95996128D01*
X149734058Y-95824162D01*
X149583735Y-95673839D01*
X149411769Y-95548900D01*
X149222363Y-95452393D01*
X149222362Y-95452392D01*
X149222361Y-95452392D01*
X149020192Y-95386703D01*
X149020190Y-95386702D01*
X149020189Y-95386702D01*
X148858906Y-95361157D01*
X148810236Y-95353449D01*
X148649674Y-95353449D01*
X148582635Y-95333764D01*
X148536880Y-95280960D01*
X148526936Y-95211802D01*
X148536880Y-95177937D01*
X148595144Y-95050357D01*
X148595143Y-95050357D01*
X148595145Y-95050355D01*
X148615626Y-94907898D01*
X148595145Y-94765441D01*
X148535357Y-94634525D01*
X148497738Y-94587842D01*
X148497733Y-94587837D01*
X148497729Y-94587832D01*
X147227957Y-93318063D01*
X147227951Y-93318058D01*
X147227947Y-93318054D01*
X147181271Y-93280438D01*
X147050357Y-93220651D01*
X147050353Y-93220650D01*
X146907898Y-93200170D01*
X146765442Y-93220650D01*
X146765438Y-93220651D01*
X146634527Y-93280437D01*
X146587832Y-93318066D01*
X145318063Y-94587838D01*
X145318054Y-94587848D01*
X145280438Y-94634524D01*
X145220651Y-94765438D01*
X145220650Y-94765442D01*
X145200170Y-94907898D01*
X138785101Y-94907898D01*
X139054182Y-94349145D01*
X139057351Y-94343011D01*
X139388238Y-93744316D01*
X139391771Y-93738328D01*
X139755705Y-93159131D01*
X139759538Y-93153394D01*
X140155401Y-92595475D01*
X140159533Y-92589986D01*
X140586056Y-92055143D01*
X140590497Y-92049884D01*
X141046340Y-91539795D01*
X141051085Y-91534777D01*
X141534777Y-91051085D01*
X141539795Y-91046340D01*
X142049884Y-90590497D01*
X142055143Y-90586056D01*
X142589986Y-90159533D01*
X142595475Y-90155401D01*
X143153394Y-89759538D01*
X143159131Y-89755705D01*
X143738330Y-89391769D01*
X143744319Y-89388237D01*
X144343011Y-89057351D01*
X144349145Y-89054182D01*
X144965465Y-88757378D01*
X144971771Y-88754556D01*
X145603768Y-88492774D01*
X145610209Y-88490316D01*
X146255898Y-88264380D01*
X146262473Y-88262284D01*
X146919819Y-88072906D01*
X146926495Y-88071184D01*
X147593428Y-87918961D01*
X147600168Y-87917621D01*
X148274600Y-87803030D01*
X148281422Y-87802067D01*
X148961170Y-87725478D01*
X148968080Y-87724894D01*
X149651040Y-87686541D01*
X149657993Y-87686346D01*
X150342007Y-87686346D01*
X150348960Y-87686541D01*
G37*
%TD.AperFunction*%
%TD*%
M02*
